<?xml version="1.0" encoding="utf-8"?>
<!-- Generator: Adobe Illustrator 27.5.0, SVG Export Plug-In . SVG Version: 6.00 Build 0)  -->
<svg version="1.1" xmlns="http://www.w3.org/2000/svg" xmlns:xlink="http://www.w3.org/1999/xlink" x="0px" y="0px"
	 viewBox="0 0 500 500" style="enable-background:new 0 0 500 500;" xml:space="preserve">
<g id="Background_Simple">
	<g>
		<path style="fill:#92E3A9;" d="M36.911,243.173c-11.57,49.715,10.861,94.81,31.892,116.469
			c34.358,35.384,65.122,31.354,86.788,24.997c41.967-12.313,111.189-55.762,149.589-47.645
			c31.597,6.679,53.936,44.932,74.753,55.268c20.694,10.275,36.175,3.685,56.009-15.643
			c54.448-53.057,30.164-195.617-20.132-201.603c-37.194-4.426-85.989,62.404-119.389,53.504
			c-31.205-8.315-44.481-84.129-97.562-106.135C152.201,103.042,53.454,172.09,36.911,243.173z"/>
		<path style="opacity:0.7;fill:#FFFFFF;" d="M36.911,243.173c-11.57,49.715,10.861,94.81,31.892,116.469
			c34.358,35.384,65.122,31.354,86.788,24.997c41.967-12.313,111.189-55.762,149.589-47.645
			c31.597,6.679,53.936,44.932,74.753,55.268c20.694,10.275,36.175,3.685,56.009-15.643
			c54.448-53.057,30.164-195.617-20.132-201.603c-37.194-4.426-85.989,62.404-119.389,53.504
			c-31.205-8.315-44.481-84.129-97.562-106.135C152.201,103.042,53.454,172.09,36.911,243.173z"/>
	</g>
</g>
<g id="Shadow">
	<ellipse style="fill:#92E3A9;" cx="247.61" cy="432.035" rx="114.262" ry="18.062"/>
</g>
<g id="Floor">
	
		<line style="fill:none;stroke:#263238;stroke-linecap:round;stroke-linejoin:round;stroke-miterlimit:10;" x1="46.22" y1="404.258" x2="459.78" y2="404.258"/>
</g>
<g id="Shelf">
	<g>
		<g>
			<defs>
				<rect id="XMLID_117_" x="256.328" y="306.19" width="9.529" height="98.253"/>
			</defs>
			<use xlink:href="#XMLID_117_"  style="overflow:visible;fill:#92E3A9;"/>
			<clipPath id="XMLID_00000150076646786066200140000004116627440878959488_">
				<use xlink:href="#XMLID_117_"  style="overflow:visible;"/>
			</clipPath>
			
				<rect x="256.328" y="306.19" style="opacity:0.5;clip-path:url(#XMLID_00000150076646786066200140000004116627440878959488_);fill:#FFFFFF;" width="9.529" height="98.253"/>
			
				<use xlink:href="#XMLID_117_"  style="overflow:visible;fill:none;stroke:#263238;stroke-linecap:round;stroke-linejoin:round;stroke-miterlimit:10;"/>
		</g>
		
			<rect x="105.46" y="397.94" transform="matrix(-1 -1.224647e-16 1.224647e-16 -1 220.4492 802.3825)" style="fill:#92E3A9;stroke:#263238;stroke-linecap:round;stroke-linejoin:round;stroke-miterlimit:10;" width="9.529" height="6.503"/>
		<g>
			<defs>
				<polygon id="XMLID_116_" points="100.386,306.19 100.386,404.443 105.468,404.443 105.468,398.937 251.36,398.937 
					251.36,404.443 256.441,404.443 256.441,306.19 				"/>
			</defs>
			<use xlink:href="#XMLID_116_"  style="overflow:visible;fill:#92E3A9;"/>
			<clipPath id="XMLID_00000120528511686474123460000016779259192351356332_">
				<use xlink:href="#XMLID_116_"  style="overflow:visible;"/>
			</clipPath>
			<polygon style="opacity:0.7;clip-path:url(#XMLID_00000120528511686474123460000016779259192351356332_);fill:#FFFFFF;" points="
				100.386,306.19 100.386,404.443 105.468,404.443 105.468,398.937 251.36,398.937 251.36,404.443 256.441,404.443 256.441,306.19 
							"/>
			
				<use xlink:href="#XMLID_116_"  style="overflow:visible;fill:none;stroke:#263238;stroke-linecap:round;stroke-linejoin:round;stroke-miterlimit:10;"/>
		</g>
		<g>
			<defs>
				<rect id="XMLID_115_" x="105.468" y="354.291" width="70.492" height="35.752"/>
			</defs>
			<use xlink:href="#XMLID_115_"  style="overflow:visible;fill:#92E3A9;"/>
			<clipPath id="XMLID_00000152225113214881797270000004121833612612217017_">
				<use xlink:href="#XMLID_115_"  style="overflow:visible;"/>
			</clipPath>
			
				<rect x="105.468" y="354.291" style="opacity:0.5;clip-path:url(#XMLID_00000152225113214881797270000004121833612612217017_);fill:#FFFFFF;" width="70.492" height="35.752"/>
			
				<use xlink:href="#XMLID_115_"  style="overflow:visible;fill:none;stroke:#263238;stroke-linecap:round;stroke-linejoin:round;stroke-miterlimit:10;"/>
		</g>
		<g>
			<defs>
				<rect id="XMLID_114_" x="105.468" y="315.084" width="70.492" height="34.125"/>
			</defs>
			<use xlink:href="#XMLID_114_"  style="overflow:visible;fill:#92E3A9;"/>
			<clipPath id="XMLID_00000089566063683813271780000002192844421928903317_">
				<use xlink:href="#XMLID_114_"  style="overflow:visible;"/>
			</clipPath>
			
				<rect x="105.468" y="315.084" style="opacity:0.5;clip-path:url(#XMLID_00000089566063683813271780000002192844421928903317_);fill:#FFFFFF;" width="70.492" height="34.125"/>
			
				<use xlink:href="#XMLID_114_"  style="overflow:visible;fill:none;stroke:#263238;stroke-linecap:round;stroke-linejoin:round;stroke-miterlimit:10;"/>
		</g>
		<g>
			<defs>
				<rect id="XMLID_113_" x="180.868" y="354.291" width="70.492" height="35.752"/>
			</defs>
			<use xlink:href="#XMLID_113_"  style="overflow:visible;fill:#92E3A9;"/>
			<clipPath id="XMLID_00000178900927842810176770000009193686005036548743_">
				<use xlink:href="#XMLID_113_"  style="overflow:visible;"/>
			</clipPath>
			
				<rect x="180.868" y="354.291" style="opacity:0.5;clip-path:url(#XMLID_00000178900927842810176770000009193686005036548743_);fill:#FFFFFF;" width="70.492" height="35.752"/>
			
				<use xlink:href="#XMLID_113_"  style="overflow:visible;fill:none;stroke:#263238;stroke-linecap:round;stroke-linejoin:round;stroke-miterlimit:10;"/>
		</g>
		<g>
			<defs>
				<rect id="XMLID_112_" x="180.868" y="315.084" width="70.492" height="34.125"/>
			</defs>
			<use xlink:href="#XMLID_112_"  style="overflow:visible;fill:#92E3A9;"/>
			<clipPath id="XMLID_00000147217048522293472760000005634399852734095526_">
				<use xlink:href="#XMLID_112_"  style="overflow:visible;"/>
			</clipPath>
			
				<rect x="180.868" y="315.084" style="opacity:0.5;clip-path:url(#XMLID_00000147217048522293472760000005634399852734095526_);fill:#FFFFFF;" width="70.492" height="34.125"/>
			
				<use xlink:href="#XMLID_112_"  style="overflow:visible;fill:none;stroke:#263238;stroke-linecap:round;stroke-linejoin:round;stroke-miterlimit:10;"/>
		</g>
		<g>
			<defs>
				<rect id="XMLID_111_" x="125.468" y="354.291" width="50.491" height="35.752"/>
			</defs>
			<use xlink:href="#XMLID_111_"  style="overflow:visible;fill:#92E3A9;"/>
			<clipPath id="XMLID_00000062872264085726760760000011875058132815836586_">
				<use xlink:href="#XMLID_111_"  style="overflow:visible;"/>
			</clipPath>
			
				<rect x="125.468" y="354.291" style="opacity:0.3;clip-path:url(#XMLID_00000062872264085726760760000011875058132815836586_);fill:#FFFFFF;" width="50.491" height="35.752"/>
			
				<use xlink:href="#XMLID_111_"  style="overflow:visible;fill:none;stroke:#263238;stroke-linecap:round;stroke-linejoin:round;stroke-miterlimit:10;"/>
		</g>
		<g>
			<defs>
				<rect id="XMLID_110_" x="125.468" y="315.084" width="50.491" height="34.125"/>
			</defs>
			<use xlink:href="#XMLID_110_"  style="overflow:visible;fill:#92E3A9;"/>
			<clipPath id="XMLID_00000113354082484847195710000008098985830096602767_">
				<use xlink:href="#XMLID_110_"  style="overflow:visible;"/>
			</clipPath>
			
				<rect x="125.468" y="315.084" style="opacity:0.3;clip-path:url(#XMLID_00000113354082484847195710000008098985830096602767_);fill:#FFFFFF;" width="50.491" height="34.125"/>
			
				<use xlink:href="#XMLID_110_"  style="overflow:visible;fill:none;stroke:#263238;stroke-linecap:round;stroke-linejoin:round;stroke-miterlimit:10;"/>
		</g>
		<g>
			<defs>
				<rect id="XMLID_109_" x="200.868" y="354.291" width="50.491" height="35.752"/>
			</defs>
			<use xlink:href="#XMLID_109_"  style="overflow:visible;fill:#92E3A9;"/>
			<clipPath id="XMLID_00000056397573426475983070000015366439264781983650_">
				<use xlink:href="#XMLID_109_"  style="overflow:visible;"/>
			</clipPath>
			
				<rect x="200.868" y="354.291" style="opacity:0.3;clip-path:url(#XMLID_00000056397573426475983070000015366439264781983650_);fill:#FFFFFF;" width="50.491" height="35.752"/>
			
				<use xlink:href="#XMLID_109_"  style="overflow:visible;fill:none;stroke:#263238;stroke-linecap:round;stroke-linejoin:round;stroke-miterlimit:10;"/>
		</g>
		<g>
			<defs>
				<rect id="XMLID_108_" x="200.868" y="315.084" width="50.491" height="34.125"/>
			</defs>
			<use xlink:href="#XMLID_108_"  style="overflow:visible;fill:#92E3A9;"/>
			<clipPath id="XMLID_00000026876960332249574500000001659315482244238722_">
				<use xlink:href="#XMLID_108_"  style="overflow:visible;"/>
			</clipPath>
			
				<rect x="200.868" y="315.084" style="opacity:0.3;clip-path:url(#XMLID_00000026876960332249574500000001659315482244238722_);fill:#FFFFFF;" width="50.491" height="34.125"/>
			
				<use xlink:href="#XMLID_108_"  style="overflow:visible;fill:none;stroke:#263238;stroke-linecap:round;stroke-linejoin:round;stroke-miterlimit:10;"/>
		</g>
	</g>
	<g>
		<g>
			<defs>
				<rect id="XMLID_107_" x="417.034" y="306.19" width="9.529" height="98.253"/>
			</defs>
			<use xlink:href="#XMLID_107_"  style="overflow:visible;fill:#92E3A9;"/>
			<clipPath id="XMLID_00000080195432845860190900000013659162933743238840_">
				<use xlink:href="#XMLID_107_"  style="overflow:visible;"/>
			</clipPath>
			
				<rect x="417.034" y="306.19" style="opacity:0.5;clip-path:url(#XMLID_00000080195432845860190900000013659162933743238840_);fill:#FFFFFF;" width="9.529" height="98.253"/>
			
				<use xlink:href="#XMLID_107_"  style="overflow:visible;fill:none;stroke:#263238;stroke-linecap:round;stroke-linejoin:round;stroke-miterlimit:10;"/>
		</g>
		
			<rect x="266.166" y="397.94" transform="matrix(-1 -1.224647e-16 1.224647e-16 -1 541.861 802.3825)" style="fill:#92E3A9;stroke:#263238;stroke-linecap:round;stroke-linejoin:round;stroke-miterlimit:10;" width="9.529" height="6.503"/>
		<g>
			<defs>
				<polygon id="XMLID_106_" points="261.092,306.19 261.092,404.443 266.174,404.443 266.174,398.937 412.066,398.937 
					412.066,404.443 417.147,404.443 417.147,306.19 				"/>
			</defs>
			<use xlink:href="#XMLID_106_"  style="overflow:visible;fill:#92E3A9;"/>
			<clipPath id="XMLID_00000051352476230446963900000012890023090669223057_">
				<use xlink:href="#XMLID_106_"  style="overflow:visible;"/>
			</clipPath>
			<polygon style="opacity:0.7;clip-path:url(#XMLID_00000051352476230446963900000012890023090669223057_);fill:#FFFFFF;" points="
				261.092,306.19 261.092,404.443 266.174,404.443 266.174,398.937 412.066,398.937 412.066,404.443 417.147,404.443 
				417.147,306.19 			"/>
			
				<use xlink:href="#XMLID_106_"  style="overflow:visible;fill:none;stroke:#263238;stroke-linecap:round;stroke-linejoin:round;stroke-miterlimit:10;"/>
		</g>
		<g>
			<defs>
				<rect id="XMLID_105_" x="266.174" y="354.291" width="70.491" height="35.752"/>
			</defs>
			<use xlink:href="#XMLID_105_"  style="overflow:visible;fill:#92E3A9;"/>
			<clipPath id="XMLID_00000146469698884582534370000013325185393498460090_">
				<use xlink:href="#XMLID_105_"  style="overflow:visible;"/>
			</clipPath>
			
				<rect x="266.174" y="354.291" style="opacity:0.5;clip-path:url(#XMLID_00000146469698884582534370000013325185393498460090_);fill:#FFFFFF;" width="70.491" height="35.752"/>
			
				<use xlink:href="#XMLID_105_"  style="overflow:visible;fill:none;stroke:#263238;stroke-linecap:round;stroke-linejoin:round;stroke-miterlimit:10;"/>
		</g>
		<g>
			<defs>
				<rect id="XMLID_104_" x="266.174" y="315.084" width="70.491" height="34.125"/>
			</defs>
			<use xlink:href="#XMLID_104_"  style="overflow:visible;fill:#92E3A9;"/>
			<clipPath id="XMLID_00000146498121282406018370000007497935104310053253_">
				<use xlink:href="#XMLID_104_"  style="overflow:visible;"/>
			</clipPath>
			
				<rect x="266.174" y="315.084" style="opacity:0.5;clip-path:url(#XMLID_00000146498121282406018370000007497935104310053253_);fill:#FFFFFF;" width="70.491" height="34.125"/>
			
				<use xlink:href="#XMLID_104_"  style="overflow:visible;fill:none;stroke:#263238;stroke-linecap:round;stroke-linejoin:round;stroke-miterlimit:10;"/>
		</g>
		<g>
			<defs>
				<rect id="XMLID_103_" x="341.574" y="354.291" width="70.492" height="35.752"/>
			</defs>
			<use xlink:href="#XMLID_103_"  style="overflow:visible;fill:#92E3A9;"/>
			<clipPath id="XMLID_00000127014571919624658310000016413912268845043376_">
				<use xlink:href="#XMLID_103_"  style="overflow:visible;"/>
			</clipPath>
			
				<rect x="341.574" y="354.291" style="opacity:0.5;clip-path:url(#XMLID_00000127014571919624658310000016413912268845043376_);fill:#FFFFFF;" width="70.492" height="35.752"/>
			
				<use xlink:href="#XMLID_103_"  style="overflow:visible;fill:none;stroke:#263238;stroke-linecap:round;stroke-linejoin:round;stroke-miterlimit:10;"/>
		</g>
		<g>
			<defs>
				<rect id="XMLID_102_" x="341.574" y="315.084" width="70.492" height="34.125"/>
			</defs>
			<use xlink:href="#XMLID_102_"  style="overflow:visible;fill:#92E3A9;"/>
			<clipPath id="XMLID_00000022527488856141044370000002766229917838048687_">
				<use xlink:href="#XMLID_102_"  style="overflow:visible;"/>
			</clipPath>
			
				<rect x="341.574" y="315.084" style="opacity:0.5;clip-path:url(#XMLID_00000022527488856141044370000002766229917838048687_);fill:#FFFFFF;" width="70.492" height="34.125"/>
			
				<use xlink:href="#XMLID_102_"  style="overflow:visible;fill:none;stroke:#263238;stroke-linecap:round;stroke-linejoin:round;stroke-miterlimit:10;"/>
		</g>
		<g>
			<defs>
				<rect id="XMLID_101_" x="286.174" y="354.291" width="50.491" height="35.752"/>
			</defs>
			<use xlink:href="#XMLID_101_"  style="overflow:visible;fill:#92E3A9;"/>
			<clipPath id="XMLID_00000016793401722462574800000012114974439223827849_">
				<use xlink:href="#XMLID_101_"  style="overflow:visible;"/>
			</clipPath>
			
				<rect x="286.174" y="354.291" style="opacity:0.3;clip-path:url(#XMLID_00000016793401722462574800000012114974439223827849_);fill:#FFFFFF;" width="50.491" height="35.752"/>
			
				<use xlink:href="#XMLID_101_"  style="overflow:visible;fill:none;stroke:#263238;stroke-linecap:round;stroke-linejoin:round;stroke-miterlimit:10;"/>
		</g>
		<g>
			<defs>
				<rect id="XMLID_100_" x="286.174" y="315.084" width="50.491" height="34.125"/>
			</defs>
			<use xlink:href="#XMLID_100_"  style="overflow:visible;fill:#92E3A9;"/>
			<clipPath id="XMLID_00000047053561851912436690000009494865174402975639_">
				<use xlink:href="#XMLID_100_"  style="overflow:visible;"/>
			</clipPath>
			
				<rect x="286.174" y="315.084" style="opacity:0.3;clip-path:url(#XMLID_00000047053561851912436690000009494865174402975639_);fill:#FFFFFF;" width="50.491" height="34.125"/>
			
				<use xlink:href="#XMLID_100_"  style="overflow:visible;fill:none;stroke:#263238;stroke-linecap:round;stroke-linejoin:round;stroke-miterlimit:10;"/>
		</g>
		<g>
			<defs>
				<rect id="XMLID_99_" x="361.574" y="354.291" width="50.491" height="35.752"/>
			</defs>
			<use xlink:href="#XMLID_99_"  style="overflow:visible;fill:#92E3A9;"/>
			<clipPath id="XMLID_00000176002471707876984580000017378378587216365972_">
				<use xlink:href="#XMLID_99_"  style="overflow:visible;"/>
			</clipPath>
			
				<rect x="361.574" y="354.291" style="opacity:0.3;clip-path:url(#XMLID_00000176002471707876984580000017378378587216365972_);fill:#FFFFFF;" width="50.491" height="35.752"/>
			
				<use xlink:href="#XMLID_99_"  style="overflow:visible;fill:none;stroke:#263238;stroke-linecap:round;stroke-linejoin:round;stroke-miterlimit:10;"/>
		</g>
		<g>
			<defs>
				<rect id="XMLID_98_" x="361.574" y="315.084" width="50.491" height="34.125"/>
			</defs>
			<use xlink:href="#XMLID_98_"  style="overflow:visible;fill:#92E3A9;"/>
			<clipPath id="XMLID_00000157279654296519790420000016374761144125325218_">
				<use xlink:href="#XMLID_98_"  style="overflow:visible;"/>
			</clipPath>
			
				<rect x="361.574" y="315.084" style="opacity:0.3;clip-path:url(#XMLID_00000157279654296519790420000016374761144125325218_);fill:#FFFFFF;" width="50.491" height="34.125"/>
			
				<use xlink:href="#XMLID_98_"  style="overflow:visible;fill:none;stroke:#263238;stroke-linecap:round;stroke-linejoin:round;stroke-miterlimit:10;"/>
		</g>
	</g>
</g>
<g id="Desk">
	<g>
		<g>
			<path style="fill:#263238;stroke:#263238;stroke-linecap:round;stroke-linejoin:round;stroke-miterlimit:10;" d="
				M206.424,423.552l-25.125-2.98V312.658h-9.317v107.913l-25.125,2.98c-2.247,0.267-3.94,2.172-3.94,4.435
				c0,0.908,0.75,1.636,1.657,1.609l32.066-0.951l32.066,0.951c0.907,0.027,1.657-0.701,1.657-1.609
				C210.364,425.724,208.671,423.818,206.424,423.552z"/>
			<path style="fill:#999999;stroke:#263238;stroke-linecap:round;stroke-linejoin:round;stroke-miterlimit:10;" d="
				M320.224,415.883H178.639c-1.354,0-2.451-1.097-2.451-2.451v-0.723c0-1.354,1.097-2.451,2.451-2.451h141.585V415.883z"/>
			<path style="fill:#263238;stroke:#263238;stroke-linecap:round;stroke-linejoin:round;stroke-miterlimit:10;" d="
				M348.363,423.552l-25.125-2.98V312.658h-9.317v107.913l-25.125,2.98c-2.247,0.267-3.939,2.172-3.939,4.435
				c0,0.908,0.75,1.636,1.657,1.609l32.066-0.951l32.066,0.951c0.907,0.027,1.657-0.701,1.657-1.609
				C352.303,425.724,350.61,423.818,348.363,423.552z"/>
			<polygon style="fill:#263238;stroke:#263238;stroke-linecap:round;stroke-linejoin:round;stroke-miterlimit:10;" points="
				198.063,312.14 182.299,267.404 166.535,312.14 169.041,313.029 182.299,275.404 195.557,313.029 			"/>
			<polygon style="fill:#263238;stroke:#263238;stroke-linecap:round;stroke-linejoin:round;stroke-miterlimit:10;" points="
				339.97,312.14 324.206,267.404 308.442,312.14 310.948,313.029 324.206,275.404 337.464,313.029 			"/>
			<path style="fill:#92E3A9;stroke:#263238;stroke-linecap:round;stroke-linejoin:round;stroke-miterlimit:10;" d="
				M164.564,295.561l29.752-84.431c0.962-2.729,3.541-4.555,6.435-4.555h134.605c4.706,0,7.999,4.652,6.435,9.09l-29.752,84.431
				c-0.962,2.729-3.541,4.555-6.435,4.555H170.998C166.293,304.651,163,299.999,164.564,295.561z"/>
			<g>
				<defs>
					<path id="XMLID_6_" d="M162.564,294.561l29.752-84.431c0.962-2.729,3.541-4.555,6.435-4.555h134.605
						c4.706,0,7.999,4.652,6.435,9.09l-29.752,84.431c-0.962,2.729-3.541,4.555-6.435,4.555H168.998
						C164.293,303.651,161,298.999,162.564,294.561z"/>
				</defs>
				<use xlink:href="#XMLID_6_"  style="overflow:visible;fill:#92E3A9;"/>
				<clipPath id="XMLID_00000170958214463323327620000005618465297726944184_">
					<use xlink:href="#XMLID_6_"  style="overflow:visible;"/>
				</clipPath>
				
					<use xlink:href="#XMLID_6_"  style="overflow:visible;fill:none;stroke:#263238;stroke-linecap:round;stroke-linejoin:round;stroke-miterlimit:10;"/>
			</g>
			<g>
				<defs>
					<polygon id="XMLID_5_" points="352.303,315.609 284.857,315.609 284.857,309.984 352.303,309.984 352.303,312.659 					"/>
				</defs>
				<use xlink:href="#XMLID_5_"  style="overflow:visible;fill:#92E3A9;"/>
				<clipPath id="XMLID_00000009565790599899724490000006074683633750164886_">
					<use xlink:href="#XMLID_5_"  style="overflow:visible;"/>
				</clipPath>
				<polygon style="opacity:0.5;clip-path:url(#XMLID_00000009565790599899724490000006074683633750164886_);" points="
					352.303,315.609 284.857,315.609 284.857,309.984 352.303,309.984 352.303,312.659 				"/>
				
					<use xlink:href="#XMLID_5_"  style="overflow:visible;fill:none;stroke:#263238;stroke-linecap:round;stroke-linejoin:round;stroke-miterlimit:10;"/>
			</g>
			
				<rect x="142.917" y="309.984" style="fill:#92E3A9;stroke:#263238;stroke-linecap:round;stroke-linejoin:round;stroke-miterlimit:10;" width="144.036" height="5.625"/>
			<g>
				<path style="fill:#92E3A9;stroke:#263238;stroke-linecap:round;stroke-linejoin:round;stroke-miterlimit:10;" d="
					M329.456,274.904c2.9,0,5.25-3.358,5.25-7.5c0-4.142-2.35-7.5-5.25-7.5h-3.25c-2.899,0-5.25,3.358-5.25,7.5
					c0,4.142,2.351,7.5,5.25,7.5H329.456z"/>
				<g>
					<defs>
						<ellipse id="XMLID_9_" cx="329.456" cy="267.404" rx="5.25" ry="7.5"/>
					</defs>
					<clipPath id="XMLID_00000029750050043650922820000014057879881527755168_">
						<use xlink:href="#XMLID_9_"  style="overflow:visible;"/>
					</clipPath>
					
						<ellipse style="opacity:0.5;clip-path:url(#XMLID_00000029750050043650922820000014057879881527755168_);" cx="329.456" cy="267.404" rx="5.25" ry="7.5"/>
					
						<use xlink:href="#XMLID_9_"  style="overflow:visible;fill:none;stroke:#263238;stroke-linecap:round;stroke-linejoin:round;stroke-miterlimit:10;"/>
				</g>
			</g>
		</g>
		<polygon style="fill:#FFFFFF;stroke:#263238;stroke-linecap:round;stroke-linejoin:round;stroke-miterlimit:10;" points="
			228.773,295.354 248.691,238.829 285.961,238.829 283.699,245.25 266.043,295.354 		"/>
	</g>
</g>
<g id="Character">
	<g>
		<g>
			<g>
				<path style="fill:#FFFFFF;stroke:#263238;stroke-linecap:round;stroke-linejoin:round;stroke-miterlimit:10;" d="
					M198.728,400.548l-5.063,10.125c0,0-5.125,0.405-7.875,1.578s5.375,25.225,9.375,25.225s18.625,0.03,17.875-4.261
					c-0.75-4.292-10.267-4.167-10.267-4.167l-2.28-8.155c0,0,1.36-1.03,2.829,0c1.469,1.03,1.469-2.22-2.156-2.845l6.75-11
					L198.728,400.548z"/>
				<path style="fill:#92E3A9;stroke:#263238;stroke-linecap:round;stroke-linejoin:round;stroke-miterlimit:10;" d="
					M195.165,437.476c4,0,18.625,0.03,17.875-4.261c-0.75-4.292-10.267-4.167-10.267-4.167l-2.28-8.155c0,0,1.36-1.03,2.828,0
					c1.469,1.03,1.469-2.22-2.156-2.845c0,0-3.75,0.977-5.25-0.949l-1.372-2.551c0,0,1.262-1.875-0.878-3.875
					c0,0-5.125,0.405-7.875,1.578S191.165,437.476,195.165,437.476z"/>
				<path style="fill:#FFFFFF;stroke:#263238;stroke-linecap:round;stroke-linejoin:round;stroke-miterlimit:10;" d="
					M194.567,411.829c-0.193-0.372-0.479-0.761-0.902-1.157c0,0-5.125,0.405-7.875,1.578c0,0,0.297,0.549,0.79,1.487
					C188.236,413.168,190.894,412.408,194.567,411.829z"/>
				
					<circle style="fill:#FFFFFF;stroke:#263238;stroke-linecap:round;stroke-linejoin:round;stroke-miterlimit:10;" cx="192.972" cy="419.012" r="1.526"/>
				<path style="fill:none;stroke:#263238;stroke-linecap:round;stroke-linejoin:round;stroke-miterlimit:10;" d="M202.773,430.548
					c0,0,1.105,0.762,2.142,3.58"/>
				<g>
					<defs>
						<path id="XMLID_36_" d="M158.915,320.629h36.75c0,0,49.085,21.938,47.17,31.573c-1.914,9.634-35.194,59.049-35.194,59.049
							l-10.94-7.912c0,0,15.714-36.791,23.964-47.041c0,0-8.989-1.825-25.244-7.537c0,0-21.016,0-29.022,0
							C161.576,348.761,152.165,347.459,158.915,320.629z"/>
					</defs>
					<use xlink:href="#XMLID_36_"  style="overflow:visible;fill:#92E3A9;"/>
					<clipPath id="XMLID_00000107581971338760433840000005043828659901457569_">
						<use xlink:href="#XMLID_36_"  style="overflow:visible;"/>
					</clipPath>
					<path id="XMLID_37_" style="opacity:0.2;clip-path:url(#XMLID_00000107581971338760433840000005043828659901457569_);" d="
						M158.915,320.629h36.75c0,0,49.085,21.938,47.17,31.573c-1.914,9.634-35.194,59.049-35.194,59.049l-10.94-7.912
						c0,0,15.714-36.791,23.964-47.041c0,0-8.989-1.825-25.244-7.537c0,0-21.016,0-29.022,0
						C161.576,348.761,152.165,347.459,158.915,320.629z"/>
					
						<use xlink:href="#XMLID_36_"  style="overflow:visible;fill:none;stroke:#263238;stroke-linecap:round;stroke-linejoin:round;stroke-miterlimit:10;"/>
				</g>
				<g>
					<defs>
						<path id="XMLID_35_" d="M199.088,399.046l11.433,8.344c0.566,0.413,0.648,1.225,0.176,1.743l-1.053,1.156l-1.236,2.087
							c-0.35,0.591-1.131,0.758-1.692,0.361l-11.675-8.253c-0.614-0.434-0.669-1.326-0.113-1.832l2.146-1.952l0.161-0.909
							C197.387,398.934,198.385,398.533,199.088,399.046z"/>
					</defs>
					<use xlink:href="#XMLID_35_"  style="overflow:visible;fill:#92E3A9;"/>
					<clipPath id="XMLID_00000151511170408776868870000008290393220219740854_">
						<use xlink:href="#XMLID_35_"  style="overflow:visible;"/>
					</clipPath>
					<path style="opacity:0.5;clip-path:url(#XMLID_00000151511170408776868870000008290393220219740854_);" d="M199.088,399.046
						l11.433,8.344c0.566,0.413,0.648,1.225,0.176,1.743l-1.053,1.156l-1.236,2.087c-0.35,0.591-1.131,0.758-1.692,0.361
						l-11.675-8.253c-0.614-0.434-0.669-1.326-0.113-1.832l2.146-1.952l0.161-0.909
						C197.387,398.934,198.385,398.533,199.088,399.046z"/>
					
						<use xlink:href="#XMLID_35_"  style="overflow:visible;fill:none;stroke:#263238;stroke-linecap:round;stroke-linejoin:round;stroke-miterlimit:10;"/>
				</g>
				<g>
					<path style="fill:none;stroke:#263238;stroke-linecap:round;stroke-linejoin:round;stroke-miterlimit:10;" d="M201.745,403.818
						c1.785,1.148,4.096,2.874,6.17,5.168"/>
					<path style="fill:none;stroke:#263238;stroke-linecap:round;stroke-linejoin:round;stroke-miterlimit:10;" d="M198.728,402.11
						c0,0,0.643,0.294,1.658,0.879"/>
				</g>
				<path style="fill:#858585;stroke:#263238;stroke-linecap:round;stroke-linejoin:round;stroke-miterlimit:10;" d="
					M195.165,437.476c4,0,18.625,0.03,17.875-4.261c-5.375,3.667-17,1.708-17,1.708c-2.375-8.125-10.25-22.672-10.25-22.672
					C183.04,413.423,191.165,437.476,195.165,437.476z"/>
				<path style="fill:none;stroke:#263238;stroke-linecap:round;stroke-linejoin:round;stroke-miterlimit:10;" d="M227.513,353.024
					c-0.926,0.202-2.035,0.524-3.348,1.024c-5.25,2,11.679-0.167,6.024,4"/>
			</g>
			<g>
				<path style="fill:#FFFFFF;stroke:#263238;stroke-linecap:round;stroke-linejoin:round;stroke-miterlimit:10;" d="
					M184.011,238.071l-0.471-5.69l7.663-1.808l-1.388-8.724l2.457-1.604c0.771-0.503,0.865-1.597,0.191-2.224l-4.285-3.985
					l-1.673-7.694c0,0-4.465-14.171-20.84-3.546s4.579,27.566,4.579,27.566l-0.526,7.707H184.011z"/>
				<path style="fill:#263238;stroke:#263238;stroke-linecap:round;stroke-linejoin:round;stroke-miterlimit:10;" d="
					M170.244,230.364c0,0,2.269-1.316,5.72-0.482c0,0,1.534-4.583,0.534-7.667s-0.534-5.333-0.534-5.333l1.951-0.333
					c0,0-1.245-5.172-1.167-6.625c0.051-0.948,0.475-2.943,1.137-3.625c2.726-2.81,14.293-4.967,10.894-11.25
					c-2.66-4.917-4.78,1.833-8.197,1.583c-3.417-0.25-0.774-5.882-4.425-6.833c-4.158-1.083-2.428,3.417-6.492,6.833
					c-4.205,3.535-18.583,12.081-10.667,19.374C158.999,216.005,156.141,220.549,170.244,230.364z"/>
				<path style="fill:#263238;stroke:#263238;stroke-linecap:round;stroke-linejoin:round;stroke-miterlimit:10;" d="
					M160.97,215.126c0,0-5.333,5.912-8.083-0.503S155.72,216.46,160.97,215.126z"/>
				<g>
					<path style="fill:none;stroke:#7F7F7F;stroke-width:0.75;stroke-linecap:round;stroke-linejoin:round;" d="M183.057,200.199
						c-1.476,0.946-3.664,1.999-6.893,3.098c-11.514,3.917-13.68,8.318-13.68,8.318"/>
					<path style="fill:none;stroke:#7F7F7F;stroke-width:0.75;stroke-linecap:round;stroke-linejoin:round;" d="M185.947,196.048
						c0,0,0.432,0.833-0.574,2.156"/>
				</g>
				<g>
					<path style="fill:none;stroke:#7F7F7F;stroke-width:0.75;stroke-linecap:round;stroke-linejoin:round;" d="M161.17,207.958
						c-0.221,0.343-0.417,0.69-0.584,1.038"/>
					<path style="fill:none;stroke:#7F7F7F;stroke-width:0.75;stroke-linecap:round;stroke-linejoin:round;" d="M174.957,192.215
						c0,0,2.742,4.269-1.928,6.633c-3.596,1.82-7.883,4.453-10.549,7.417"/>
				</g>
				<path style="fill:#FFFFFF;stroke:#263238;stroke-linecap:round;stroke-linejoin:round;stroke-miterlimit:10;" d="
					M176.29,218.082c0,0-4.519-2.2-4.282,1.763c0.282,4.732,5.274,5.848,5.907,3.515"/>
				<path style="fill:#263238;" d="M186.154,213.361c0.311,0.769,0.281,1.507-0.067,1.647c-0.347,0.14-0.881-0.37-1.191-1.139
					c-0.311-0.769-0.281-1.507,0.067-1.647C185.31,212.082,185.843,212.592,186.154,213.361z"/>
				<path style="fill:none;stroke:#263238;stroke-miterlimit:10;" d="M184.54,209.923c0,0-2,1.009-2,3.692"/>
				<path style="fill:none;stroke:#263238;stroke-linecap:round;stroke-linejoin:round;stroke-miterlimit:10;" d="M188.353,224.538
					c0,0-2.828,1.073-4.813-0.49"/>
			</g>
			<g>
				<path style="fill:#92E3A9;stroke:#263238;stroke-linecap:round;stroke-linejoin:round;stroke-miterlimit:10;" d="
					M203.498,323.766c0,0,44.887,6.803,51.902,18.042c7.015,11.239,7.082,71.864,7.082,71.864l-12.333,1.5
					c0,0-9.984-43.958-9.484-60.625c0,0-18.167-4.333-36.167-5.5c-18-1.167-36,3.437-34.667-25.282v-3.138h33.489L203.498,323.766z"
					/>
				<g>
					<path style="fill:none;stroke:#263238;stroke-linecap:round;stroke-linejoin:round;stroke-miterlimit:10;" d="M258.573,402.806
						c0.053,0.982,0.101,1.899,0.144,2.742"/>
					<path style="fill:none;stroke:#263238;stroke-linecap:round;stroke-linejoin:round;stroke-miterlimit:10;" d="M234.07,336.903
						c8.585,2.694,16.364,5.76,17.595,8.311c3.521,7.295,5.689,36.471,6.685,53.604"/>
					<path style="fill:none;stroke:#263238;stroke-linecap:round;stroke-linejoin:round;stroke-miterlimit:10;" d="M199.381,323.766
						c0,0,7.785,1.782,9.618,6.448c0,0,9.937,2.237,20.238,5.231"/>
				</g>
				<path style="fill:none;stroke:#263238;stroke-linecap:round;stroke-linejoin:round;stroke-miterlimit:10;" d="M202.786,326.58
					c-2.529-0.333-6.067-0.849-9.621-1.532"/>
				<path style="fill:#FFFFFF;stroke:#263238;stroke-linecap:round;stroke-linejoin:round;stroke-miterlimit:10;" d="
					M250.908,415.081l1.507,9.592c0,0-0.625,7.875,1.625,9.188c2.25,1.313,13.769-2.546,18.063-4.313
					c3.821-1.572,14.563-6.833,13.063-10.125c-1.439-3.159-11.188,0.938-11.188,0.938l-8.613-0.096c0,0,1.238-3.529-0.387-3.529
					s-0.938,2.25-3,2.625l-0.316-5.588L250.908,415.081z"/>
				<path style="fill:#FFFFFF;stroke:#263238;stroke-linecap:round;stroke-linejoin:round;stroke-miterlimit:10;" d="
					M258.29,423.715c-3.75-1.458-5.875,0.958-5.875,0.958s-0.625,7.875,1.625,9.188c2.25,1.313,13.769-2.546,18.063-4.313
					c3.821-1.572,14.563-6.833,13.063-10.125c-1.439-3.159-11.188,0.938-11.188,0.938l-8.613-0.096c0,0,1.238-3.529-0.387-3.529
					s-0.938,2.25-3,2.625C260.432,423.391,258.29,423.715,258.29,423.715z"/>
				<path style="fill:#92E3A9;stroke:#263238;stroke-linecap:round;stroke-linejoin:round;stroke-miterlimit:10;" d="
					M258.29,423.715c-3.75-1.458-5.875,0.958-5.875,0.958s-0.625,7.875,1.625,9.188c2.25,1.313,13.769-2.546,18.063-4.313
					c3.821-1.572,14.563-6.833,13.063-10.125c-1.439-3.159-11.188,0.938-11.188,0.938l-8.613-0.096c0,0,1.238-3.529-0.387-3.529
					s-0.938,2.25-3,2.625C260.432,423.391,258.29,423.715,258.29,423.715z"/>
				<path style="fill:#FFFFFF;stroke:#263238;stroke-linecap:round;stroke-linejoin:round;stroke-miterlimit:10;" d="
					M285.21,419.556c-1.763,2.057-4.913,4.526-10.545,6.971c-10.88,4.725-18.994,5.303-21.828,5.345
					c0.258,0.923,0.641,1.661,1.203,1.989c2.25,1.313,13.769-2.546,18.063-4.313C275.873,427.997,286.374,422.854,285.21,419.556z"
					/>
				<path style="fill:#FFFFFF;stroke:#263238;stroke-linecap:round;stroke-linejoin:round;stroke-miterlimit:10;" d="
					M256.574,431.609c-0.997-4.198-0.959-6.91-0.773-8.36c-0.959,0.026-1.725,0.304-2.286,0.607
					c-0.034,4.178,0.309,6.688,0.566,7.971C254.77,431.789,255.611,431.72,256.574,431.609z"/>
				<path style="fill:#FFFFFF;stroke:#263238;stroke-linecap:round;stroke-linejoin:round;stroke-miterlimit:10;" d="
					M263.173,425.345c0.278,0.952-0.061,1.889-0.758,2.092c-0.697,0.203-1.487-0.404-1.765-1.356
					c-0.278-0.952,0.061-1.889,0.758-2.092C262.105,423.786,262.895,424.393,263.173,425.345z"/>
				<path style="fill:#FFFFFF;stroke:#263238;stroke-linecap:round;stroke-linejoin:round;stroke-miterlimit:10;" d="
					M276.389,420.965c0.971,0.135,2.253,0.511,3.088,1.521"/>
				<g>
					<defs>
						<path id="XMLID_34_" d="M248.666,410.344l14.071-1.529c0.696-0.076,1.304,0.47,1.304,1.17v1.563l0.491,2.376
							c0.139,0.673-0.326,1.322-1.008,1.406l-14.189,1.76c-0.747,0.093-1.387-0.529-1.317-1.279l0.272-2.888l-0.493-0.78
							C247.333,411.407,247.8,410.438,248.666,410.344z"/>
					</defs>
					<use xlink:href="#XMLID_34_"  style="overflow:visible;fill:#92E3A9;"/>
					<clipPath id="XMLID_00000068637040872587166400000013741846388601673399_">
						<use xlink:href="#XMLID_34_"  style="overflow:visible;"/>
					</clipPath>
					<path style="opacity:0.4;clip-path:url(#XMLID_00000068637040872587166400000013741846388601673399_);" d="M248.666,410.344
						l14.071-1.529c0.696-0.076,1.304,0.47,1.304,1.17v1.563l0.491,2.376c0.139,0.673-0.326,1.322-1.008,1.406l-14.189,1.76
						c-0.747,0.093-1.387-0.529-1.317-1.279l0.272-2.888l-0.493-0.78C247.333,411.407,247.8,410.438,248.666,410.344z"/>
					
						<use xlink:href="#XMLID_34_"  style="overflow:visible;fill:none;stroke:#263238;stroke-linecap:round;stroke-linejoin:round;stroke-miterlimit:10;"/>
				</g>
				<g>
					<path style="fill:none;stroke:#263238;stroke-linecap:round;stroke-linejoin:round;stroke-miterlimit:10;" d="M253.152,412.83
						c2.069-0.138,5.049-0.432,8.431-1.057"/>
					<path style="fill:none;stroke:#263238;stroke-linecap:round;stroke-linejoin:round;stroke-miterlimit:10;" d="M250.149,412.953
						c0,0,0.542,0.001,1.5-0.04"/>
				</g>
				<path style="fill:none;stroke:#263238;stroke-linecap:round;stroke-linejoin:round;stroke-miterlimit:10;" d="M248.665,345.881
					c0,0-3.653,0.642-5.83,5.32c-2.177,4.678,3.33-2.153,5.83,1.013"/>
			</g>
			<g>
				<path style="fill:#858585;stroke:#263238;stroke-linecap:round;stroke-linejoin:round;stroke-miterlimit:10;" d="
					M164.348,243.298l1.14-5.195v-1.309c0-0.48,0.326-0.89,0.776-0.967c3.08-0.53,14.58-2.199,20.801,1.199
					c0.386,0.211,0.416,0.78,0.049,1.026l-1.271,0.854c-0.195,0.131-0.293,0.374-0.247,0.613l0.586,3.029L164.348,243.298z"/>
				<path style="fill:#263238;stroke:#263238;stroke-linecap:round;stroke-linejoin:round;stroke-miterlimit:10;" d="
					M156.837,322.715c0,0,14.828,1.62,25.995,0.727c11.167-0.893,22-1.56,22-1.56s-2.965-17-2.965-36.167s3.132-40.667-6.701-43.5
					s-35.555-5.403-42.028,2.882C146.665,253.381,156.508,277.881,156.837,322.715z"/>
				<g>
					<g>
						<path style="fill:#FFFFFF;stroke:#263238;stroke-linecap:round;stroke-linejoin:round;stroke-miterlimit:10;" d="
							M216.724,296.923c0,0,1.258-0.454,2.978,0.011c2.251,0.609,5.295,2.08,7.346,1.007c3.617-1.893,5.635-5.615,5.635-5.615
							s3.483-2.778,2.358-4.278c-0.586-0.781-5.483,3.708-5.991,2.917c-0.509-0.792,2.759-3.287,4.116-5.292
							c1.357-2.005,1.625-4.25,1-4.625s-1.625,1.375-1.625,1.375s1.063-2.063,0.375-2.563s-3.083,2.479-3.083,2.479
							s0.831-1.577-0.104-1.854c-0.935-0.277-2.438,2.448-3.25,3.505c-0.813,1.057,0.813-2.068,0.188-2.63s-1.25,2.25-2.75,5.375
							s-2.825,4.103-2.825,4.103l-4.366-1.603V296.923z"/>
						<path style="fill:none;stroke:#263238;stroke-linecap:round;stroke-linejoin:round;stroke-miterlimit:10;" d="
							M231.853,283.548c0,0-3.192,4.841-4.451,4.813c-0.648-0.015-1.392-0.511-2.441-0.255"/>
						<path style="fill:none;stroke:#263238;stroke-linecap:round;stroke-linejoin:round;stroke-miterlimit:10;" d="
							M226.756,286.881c0,0,1.242-0.875,2.534-3.333"/>
					</g>
					<path style="fill:#263238;stroke:#263238;stroke-linecap:round;stroke-linejoin:round;stroke-miterlimit:10;" d="
						M155.165,246.548c2.635-2,8.317-5.333,12.84,1.695c6.586,10.235,18.962,26.806,20.144,31.306c0,0,9.015,0.867,15.349,3.684
						c6.334,2.816,12.276,5.049,15.722,5.849c0,0,2.263,5.8-1.496,8.86c0,0-33.973-1.466-38.183-4.57
						c-4.209-3.104-20.522-27.474-24.287-34.618C152.088,252.745,151.286,249.493,155.165,246.548z"/>
				</g>
				<g>
					<path style="fill:none;stroke:#7F7F7F;stroke-width:0.75;stroke-linecap:round;stroke-linejoin:round;" d="M187.194,297.939
						c0.539,0.409,1.068,0.834,1.585,1.275"/>
					<path style="fill:none;stroke:#7F7F7F;stroke-width:0.75;stroke-linecap:round;stroke-linejoin:round;" d="M166.399,295.881
						c0-2.297-7.234-3-7.234-5.667c0-2.381,14.264-1.307,25.662,6.067"/>
				</g>
			</g>
			<g>
				<path style="fill:none;stroke:#7F7F7F;stroke-width:0.75;stroke-linecap:round;stroke-linejoin:round;" d="M201.966,291.925
					c-0.064-2.031-0.099-4.108-0.099-6.21c0-0.72,0.004-1.442,0.012-2.167"/>
				<path style="fill:none;stroke:#7F7F7F;stroke-width:0.75;stroke-linecap:round;stroke-linejoin:round;" d="M202.146,296.285
					c-0.036-0.705-0.069-1.418-0.099-2.138"/>
			</g>
			<g>
				<g>
					<polygon style="fill:#92E3A9;stroke:#263238;stroke-linecap:round;stroke-linejoin:round;stroke-miterlimit:10;" points="
						211.612,219.994 212.612,221.665 213.274,222.103 232.062,210.859 230.899,210.72 229.9,209.05 230.327,207.96 
						211.539,219.204 					"/>
					<polygon style="fill:#FFFFFF;stroke:#263238;stroke-linecap:round;stroke-linejoin:round;stroke-miterlimit:10;" points="
						234.557,207.397 230.327,207.96 229.579,208.747 230.598,210.98 231.608,211.131 232.062,210.859 					"/>
					<path style="fill:#263238;stroke:#263238;stroke-linecap:round;stroke-linejoin:round;stroke-miterlimit:10;" d="
						M233.092,207.592c0.042,0.184,0.11,0.37,0.219,0.551c0.108,0.181,0.24,0.329,0.383,0.453l0.864-1.199L233.092,207.592z"/>
				</g>
				<path style="fill:#FFFFFF;stroke:#263238;stroke-linecap:round;stroke-linejoin:round;stroke-miterlimit:10;" d="
					M219.082,213.819c0,0,1.958-2.021,4.386-0.584c0,0,2.282,0.479,3.365,1.646c0,0,2.583-0.333,3.25,1.417
					c0.667,1.75,0.385,4.25-0.766,4.333c0,0,0.336,2.402,0,3.583c-0.337,1.181-1.089,3.208-1.089,3.208l0.688,4.958h-8.667
					l-0.5-2.988c0,0-5.354-7.929-4.969-11.429c0,0,1.497-4.492,2.319-8.505c0.67-3.268,0.556-6.218,1.566-6.162
					c2.25,0.125,1.654,4.122,1.249,5.438C219.536,209.966,219.082,213.819,219.082,213.819z"/>
				<path style="fill:#FFFFFF;stroke:#263238;stroke-linecap:round;stroke-linejoin:round;stroke-miterlimit:10;" d="
					M218.25,215.298c0,0,2.667-0.583,3.75,0.417c0,0,2.75-0.167,4,1.167"/>
				<path style="fill:#FFFFFF;stroke:#263238;stroke-linecap:round;stroke-linejoin:round;stroke-miterlimit:10;" d="M228.5,217.881
					c0,0,0.218,1.083,0.817,2.75"/>
				<path style="fill:#263238;stroke:#263238;stroke-linecap:round;stroke-linejoin:round;stroke-miterlimit:10;" d="
					M192.999,249.215c-0.297-2.592-0.304-8.896,9.333-4.667c9.638,4.23,18.301,6.833,20.151,9.167c0,0-2.277-5.259-1.984-10.307
					c0.293-5.048-1.274-12.531-1.274-12.531s6.457-3.338,10.366,0c0,0,4.876,35.171,3.892,36.005
					c-0.984,0.833-11.248-1-20.783-2.167C203.165,263.548,194.18,259.509,192.999,249.215z"/>
				<g>
					<path style="fill:none;stroke:#7F7F7F;stroke-width:0.75;stroke-linecap:round;stroke-linejoin:round;" d="M193.373,245.251
						c0.207-0.48,0.5-0.919,0.908-1.271"/>
					<path style="fill:none;stroke:#7F7F7F;stroke-width:0.75;stroke-linecap:round;stroke-linejoin:round;" d="M196.995,258.084
						c-2.123-2.246-3.569-5.149-3.996-8.87c-0.059-0.516-0.107-1.18-0.069-1.878"/>
					<path style="fill:none;stroke:#7F7F7F;stroke-width:0.75;stroke-linecap:round;stroke-linejoin:round;" d="M200.532,260.913
						c-0.656-0.4-1.283-0.834-1.874-1.305"/>
				</g>
				<path style="fill:none;stroke:#7F7F7F;stroke-width:0.75;stroke-linecap:round;stroke-linejoin:round;" d="M227.79,260.423
					c0,0-0.604-2.589-3.875-5.75"/>
			</g>
		</g>
		<g>
			<path style="fill:#858585;stroke:#263238;stroke-linecap:round;stroke-linejoin:round;stroke-miterlimit:10;" d="
				M186.207,346.595h-36.094c-3.065,0-5.549,2.485-5.549,5.549v6.563c0,1.779,1.442,3.221,3.221,3.221h38.423V346.595z"/>
			<path style="fill:#999999;stroke:#263238;stroke-linecap:round;stroke-linejoin:round;stroke-miterlimit:10;" d="
				M175.649,290.678h-6.238v22.333h9.798c3.563,0,6.452-2.889,6.452-6.452v-5.869C185.661,295.161,181.178,290.678,175.649,290.678z
				"/>
			<path style="fill:#858585;stroke:#263238;stroke-linecap:round;stroke-linejoin:round;stroke-miterlimit:10;" d="
				M176.088,313.011h-25.073c-3.563,0-6.452-2.889-6.452-6.452v-5.869c0-5.529,4.482-10.012,10.012-10.012h17.953
				c5.53,0,10.012,4.483,10.012,10.012v5.869C182.54,310.123,179.652,313.011,176.088,313.011z"/>
			<path style="fill:#92E3A9;stroke:#263238;stroke-linecap:round;stroke-linejoin:round;stroke-miterlimit:10;" d="M182.54,362.511
				h-1.137h-17.192c-2.233,0-4.05-1.816-4.05-4.05v-53.726c0-0.216,0.175-0.392,0.391-0.392c1.381,0,2.5-1.119,2.5-2.5
				c0-1.381-1.119-2.5-2.5-2.5c-2.973,0-5.391,2.419-5.391,5.392v53.726c0,4.99,4.06,9.05,9.05,9.05h15.829v61.083
				c0,1.381,1.119,2.5,2.5,2.5c1.381,0,2.5-1.119,2.5-2.5v-61.083h8.841c2.762,0,5-2.239,5-5H182.54z"/>
			<path style="fill:#858585;stroke:#263238;stroke-linecap:round;stroke-linejoin:round;stroke-miterlimit:10;" d="
				M202.963,435.547l-16.756-3.585v-15.534h-7.333v15.534l-16.756,3.585c-1.719,0.368-2.948,1.887-2.948,3.645v0.459
				c0,0.96,0.864,1.689,1.81,1.527l21.56-3.69l21.56,3.69c0.946,0.162,1.81-0.567,1.81-1.527v-0.459
				C205.911,437.434,204.682,435.915,202.963,435.547z"/>
			<path style="fill:#999999;stroke:#263238;stroke-linecap:round;stroke-linejoin:round;stroke-miterlimit:10;" d="
				M220.518,358.707L220.518,358.707c0-6.69-5.423-12.113-12.113-12.113h-25.611c-3.065,0-5.549,2.485-5.549,5.549v6.563
				c0,1.779,1.442,3.221,3.221,3.221h36.832C219.076,361.928,220.518,360.486,220.518,358.707z"/>
		</g>
	</g>
</g>
<g id="Thingking">
	<g>
		<g>
			<path style="fill:#FFFFFF;stroke:#263238;stroke-linecap:round;stroke-linejoin:round;stroke-miterlimit:10;" d="
				M343.184,135.745c3.857-1.57,7.265-4.119,9.866-7.367"/>
			<path style="fill:#FFFFFF;stroke:#263238;stroke-linecap:round;stroke-linejoin:round;stroke-miterlimit:10;" d="
				M334.142,144.727c2.354-0.024,4.498-0.943,6.107-2.433"/>
			<path style="fill:#FFFFFF;stroke:#263238;stroke-linecap:round;stroke-linejoin:round;stroke-miterlimit:10;" d="
				M310.817,155.707c1.489,0.329,3.014,0.498,4.545,0.498c6.735,0,12.944-3.224,16.867-8.429"/>
			<path style="fill:none;stroke:#263238;stroke-linecap:round;stroke-linejoin:round;stroke-miterlimit:10;" d="M307.833,154.812
				c0.515,0.197,1.038,0.373,1.566,0.529"/>
			<path style="fill:#FFFFFF;stroke:#263238;stroke-linecap:round;stroke-linejoin:round;stroke-miterlimit:10;" d="M303.421,117.64
				c-0.399,0.272-0.788,0.558-1.167,0.857c-1.011-0.332-2.073-0.503-3.153-0.503"/>
			<path style="fill:#FFFFFF;stroke:#263238;stroke-linecap:round;stroke-linejoin:round;stroke-miterlimit:10;" d="
				M305.851,112.556c-0.406,1.108-0.617,2.282-0.617,3.471c0,0.167,0.004,0.334,0.012,0.501"/>
			<path style="fill:#FFFFFF;stroke:#263238;stroke-linecap:round;stroke-linejoin:round;stroke-miterlimit:10;" d="
				M303.367,104.209c0.197,1.807,0.597,3.586,1.193,5.304"/>
			<path style="fill:#FFFFFF;stroke:#263238;stroke-linecap:round;stroke-linejoin:round;stroke-miterlimit:10;" d="M313.657,81.663
				c-6.301,4.396-10.431,11.698-10.431,19.947"/>
			<path style="fill:#FFFFFF;stroke:#263238;stroke-linecap:round;stroke-linejoin:round;stroke-miterlimit:10;" d="M318.725,78.954
				c-0.958,0.374-1.887,0.806-2.781,1.294"/>
			<path style="fill:#FFFFFF;stroke:#263238;stroke-linecap:round;stroke-linejoin:round;stroke-miterlimit:10;" d="M341.418,81.666
				c-3.963-2.763-8.767-4.362-13.888-4.362"/>
			<path style="fill:#FFFFFF;stroke:#263238;stroke-linecap:round;stroke-linejoin:round;stroke-miterlimit:10;" d="M345.556,85.31
				c-0.663-0.733-1.37-1.424-2.115-2.071"/>
			<path style="fill:#FFFFFF;stroke:#263238;stroke-linecap:round;stroke-linejoin:round;stroke-miterlimit:10;" d="
				M357.078,121.017c0.84-2.492,1.276-5.122,1.276-7.771c0-6.447-2.602-12.656-7.175-17.209"/>
			<path style="fill:#FFFFFF;stroke:#263238;stroke-linecap:round;stroke-linejoin:round;stroke-miterlimit:10;" d="
				M355.369,124.908c0.36-0.656,0.689-1.328,0.986-2.013"/>
		</g>
		<g>
			<polygon style="fill:#92E3A9;stroke:#263238;stroke-linecap:round;stroke-linejoin:round;stroke-miterlimit:10;" points="
				238.113,200.827 229.872,180.931 242.982,163.846 264.333,166.657 272.574,186.553 259.464,203.638 			"/>
			<g>
				<defs>
					<polygon id="XMLID_27_" points="264.333,166.657 251.223,183.742 229.872,180.931 242.982,163.846 					"/>
				</defs>
				<use xlink:href="#XMLID_27_"  style="overflow:visible;fill:#92E3A9;"/>
				<clipPath id="XMLID_00000150797517533410335290000015291422307537321858_">
					<use xlink:href="#XMLID_27_"  style="overflow:visible;"/>
				</clipPath>
				<polygon style="opacity:0.3;clip-path:url(#XMLID_00000150797517533410335290000015291422307537321858_);" points="
					264.333,166.657 251.223,183.742 229.872,180.931 242.982,163.846 				"/>
				
					<use xlink:href="#XMLID_27_"  style="overflow:visible;fill:none;stroke:#263238;stroke-linecap:round;stroke-linejoin:round;stroke-miterlimit:10;"/>
			</g>
			<g>
				<defs>
					<polygon id="XMLID_26_" points="232.305,145.358 219.195,162.443 229.872,180.931 242.982,163.846 					"/>
				</defs>
				<use xlink:href="#XMLID_26_"  style="overflow:visible;fill:#92E3A9;"/>
				<clipPath id="XMLID_00000100364626389874523420000002709358369690555800_">
					<use xlink:href="#XMLID_26_"  style="overflow:visible;"/>
				</clipPath>
				
					<polygon style="opacity:0.6;clip-path:url(#XMLID_00000100364626389874523420000002709358369690555800_);fill:#FFFFFF;" points="
					232.305,145.358 219.195,162.443 229.872,180.931 242.982,163.846 				"/>
				
					<use xlink:href="#XMLID_26_"  style="overflow:visible;fill:none;stroke:#263238;stroke-linecap:round;stroke-linejoin:round;stroke-miterlimit:10;"/>
			</g>
			<g>
				<defs>
					<polygon id="XMLID_25_" points="251.223,183.742 259.464,203.638 238.113,200.827 229.872,180.931 					"/>
				</defs>
				<use xlink:href="#XMLID_25_"  style="overflow:visible;fill:#92E3A9;"/>
				<clipPath id="XMLID_00000077282076524077516330000015790792629461882294_">
					<use xlink:href="#XMLID_25_"  style="overflow:visible;"/>
				</clipPath>
				
					<polygon style="opacity:0.4;clip-path:url(#XMLID_00000077282076524077516330000015790792629461882294_);fill:#FFFFFF;" points="
					251.223,183.742 259.464,203.638 238.113,200.827 229.872,180.931 				"/>
				
					<use xlink:href="#XMLID_25_"  style="overflow:visible;fill:none;stroke:#263238;stroke-linecap:round;stroke-linejoin:round;stroke-miterlimit:10;"/>
			</g>
			<polygon style="fill:#92E3A9;stroke:#263238;stroke-linecap:round;stroke-linejoin:round;stroke-miterlimit:10;" points="
				251.223,183.742 229.872,180.931 242.982,163.846 			"/>
		</g>
		<path style="fill:#FFFFFF;stroke:#263238;stroke-linecap:round;stroke-linejoin:round;stroke-miterlimit:10;" d="M354.982,113.245
			c0-6.148-2.666-11.659-6.886-15.489c-1.811-9.719-10.321-17.081-20.565-17.081c-11.561,0-20.934,9.372-20.934,20.934
			c0,3.971,1.126,7.67,3.046,10.833c-0.653,1.04-1.037,2.266-1.037,3.585c0,0.866,0.169,1.69,0.465,2.451
			c-2.36,0.895-4.488,2.262-6.244,4.011c-1.069-0.708-2.348-1.123-3.726-1.123c-3.731,0-6.756,3.024-6.756,6.756
			c0,0.548,0.072,1.079,0.196,1.589c-6.821,0.881-12.106,6.624-12.268,13.646c-2.624,0.512-4.926,1.914-6.583,3.882
			c-1.236-1.358-3.012-2.216-4.992-2.216c-3.731,0-6.756,3.025-6.756,6.756c0,0.971,0.208,1.891,0.577,2.725
			c-0.426,0.338-0.809,0.722-1.125,1.165c-1.014-0.887-2.326-1.442-3.778-1.442c-0.208,0-0.404,0.04-0.606,0.061
			c-2-3.395-5.682-5.679-9.907-5.679c-6.353,0-11.503,5.15-11.503,11.503c0,3.037,1.186,5.792,3.109,7.847
			c-1.433,1.239-2.344,3.066-2.344,5.109c0,1.917,0.802,3.643,2.084,4.873c-0.908,1.067-1.486,2.423-1.57,3.912l13.081,1.722
			c0.09-0.435,0.137-0.884,0.137-1.346c0-1.826-0.74-3.479-1.935-4.677c1.063-1.194,1.714-2.762,1.714-4.485
			c0-0.604-0.087-1.187-0.236-1.744c3.225-0.727,5.936-2.804,7.505-5.612c0.158,0.013,0.309,0.047,0.47,0.047
			c1.939,0,3.645-0.964,4.69-2.432c1.014,0.887,2.326,1.442,3.778,1.442c3.182,0,5.761-2.577,5.766-5.758
			c1.721,4.184,5.833,7.132,10.638,7.132c2.035,0,3.943-0.533,5.601-1.46c1.154,2.07,3.363,3.472,5.902,3.472
			c3.731,0,6.756-3.025,6.756-6.756c0-1.699-0.632-3.247-1.667-4.434c3.243-1.152,5.94-3.446,7.598-6.41
			c2.569,1.444,5.527,2.276,8.684,2.276c7.73,0,14.289-4.947,16.729-11.841c0.614,0.223,1.267,0.364,1.957,0.364
			c3.185,0,5.766-2.582,5.766-5.766c0-0.753-0.154-1.467-0.417-2.127c5.603-1.48,10.29-5.215,13.017-10.179
			C354.051,120.307,354.982,116.886,354.982,113.245z"/>
		<g>
			<polygon style="fill:#263238;stroke:#263238;stroke-linecap:round;stroke-linejoin:round;stroke-miterlimit:10;" points="
				232.726,125.897 223.24,103.886 252.596,91.236 			"/>
			<polygon style="fill:#92E3A9;stroke:#263238;stroke-linecap:round;stroke-linejoin:round;stroke-miterlimit:10;" points="
				233.915,122.279 224.429,100.268 253.785,87.617 			"/>
		</g>
		<g>
			<path id="XMLID_24_" style="fill:#263238;stroke:#263238;stroke-linecap:round;stroke-linejoin:round;stroke-miterlimit:10;" d="
				M276.434,129.958c-2.65,6.096-9.74,8.89-15.836,6.24c-6.096-2.65-8.89-9.74-6.24-15.836L276.434,129.958z"/>
			<g>
				<defs>
					<path id="XMLID_23_" d="M277.623,126.339c-2.65,6.096-9.74,8.89-15.836,6.24c-6.096-2.65-8.89-9.74-6.24-15.836
						L277.623,126.339z"/>
				</defs>
				<use xlink:href="#XMLID_23_"  style="overflow:visible;fill:#92E3A9;"/>
				<clipPath id="XMLID_00000052082626784883819680000004771657240066886038_">
					<use xlink:href="#XMLID_23_"  style="overflow:visible;"/>
				</clipPath>
				<path style="opacity:0.3;clip-path:url(#XMLID_00000052082626784883819680000004771657240066886038_);" d="M277.623,126.339
					c-2.65,6.096-9.74,8.89-15.836,6.24c-6.096-2.65-8.89-9.74-6.24-15.836L277.623,126.339z"/>
				
					<use xlink:href="#XMLID_23_"  style="overflow:visible;fill:none;stroke:#263238;stroke-linecap:round;stroke-linejoin:round;stroke-miterlimit:10;"/>
			</g>
		</g>
		<g>
			
				<rect id="XMLID_22_" x="273.37" y="92.371" transform="matrix(0.7071 0.7071 -0.7071 0.7071 153.6 -169.6501)" style="fill:#263238;stroke:#263238;stroke-linecap:round;stroke-linejoin:round;stroke-miterlimit:10;" width="16.431" height="16.431"/>
			<g>
				<defs>
					
						<rect id="XMLID_8_" x="274.559" y="88.753" transform="matrix(0.7071 0.7071 -0.7071 0.7071 151.3894 -171.5504)" width="16.431" height="16.431"/>
				</defs>
				<use xlink:href="#XMLID_8_"  style="overflow:visible;fill:#92E3A9;"/>
				<clipPath id="XMLID_00000145027823553998070880000000027249166444972206_">
					<use xlink:href="#XMLID_8_"  style="overflow:visible;"/>
				</clipPath>
				
					<rect x="274.559" y="88.753" transform="matrix(0.7071 0.7071 -0.7071 0.7071 151.3894 -171.5504)" style="opacity:0.3;clip-path:url(#XMLID_00000145027823553998070880000000027249166444972206_);fill:#FFFFFF;" width="16.431" height="16.431"/>
				
					<use xlink:href="#XMLID_8_"  style="overflow:visible;fill:none;stroke:#263238;stroke-linecap:round;stroke-linejoin:round;stroke-miterlimit:10;"/>
			</g>
		</g>
		<g>
			<g>
				<defs>
					<path id="XMLID_7_" d="M192.789,103.001c-1.96-16.601-17.008-28.469-33.609-26.509c-16.601,1.961-28.469,17.007-26.509,33.608
						c1.422,12.042,11.967,19.062,19.151,27.88c2.225,2.731,3.322,13.798,3.322,13.798l25.498-3.011c0,0-1.511-11.018,0.017-14.192
						C185.592,124.327,194.212,115.043,192.789,103.001z"/>
				</defs>
				<use xlink:href="#XMLID_7_"  style="overflow:visible;fill:#92E3A9;"/>
				<clipPath id="XMLID_00000049944566858776050580000011194872387655457693_">
					<use xlink:href="#XMLID_7_"  style="overflow:visible;"/>
				</clipPath>
				<path style="opacity:0.7;clip-path:url(#XMLID_00000049944566858776050580000011194872387655457693_);fill:#FFFFFF;" d="
					M192.789,103.001c-1.96-16.601-17.008-28.469-33.609-26.509c-16.601,1.961-28.469,17.007-26.509,33.608
					c1.422,12.042,11.967,19.062,19.151,27.88c2.225,2.731,3.322,13.798,3.322,13.798l25.498-3.011c0,0-1.511-11.018,0.017-14.192
					C185.592,124.327,194.212,115.043,192.789,103.001z"/>
				
					<use xlink:href="#XMLID_7_"  style="overflow:visible;fill:none;stroke:#263238;stroke-linecap:round;stroke-linejoin:round;stroke-miterlimit:10;"/>
			</g>
			<path style="fill:#999999;stroke:#263238;stroke-linecap:round;stroke-linejoin:round;stroke-miterlimit:10;" d="
				M174.402,158.647l-10.886,1.285c-4.035,0.477-7.692-2.408-8.169-6.443v0l25.497-3.011v0
				C181.322,154.513,178.437,158.171,174.402,158.647z"/>
			<path style="fill:#858585;stroke:#263238;stroke-linecap:round;stroke-linejoin:round;stroke-miterlimit:10;" d="M169.865,166.96
				L169.865,166.96c-3.291,0.389-6.274-1.964-6.663-5.255v0l11.918-1.408l0,0C175.509,163.588,173.156,166.571,169.865,166.96z"/>
			<g>
				<g>
					
						<line style="fill:none;stroke:#263238;stroke-linecap:round;stroke-linejoin:round;stroke-miterlimit:10;" x1="162.775" y1="129.604" x2="162.775" y2="133.609"/>
					
						<line style="fill:none;stroke:#263238;stroke-linecap:round;stroke-linejoin:round;stroke-miterlimit:10;" x1="162.775" y1="114.413" x2="162.775" y2="126.553"/>
				</g>
				<g>
					
						<line style="fill:none;stroke:#263238;stroke-linecap:round;stroke-linejoin:round;stroke-miterlimit:10;" x1="162.775" y1="97.188" x2="162.775" y2="99.412"/>
					
						<line style="fill:none;stroke:#263238;stroke-linecap:round;stroke-linejoin:round;stroke-miterlimit:10;" x1="162.775" y1="84.539" x2="162.775" y2="95.217"/>
					
						<line style="fill:none;stroke:#263238;stroke-linecap:round;stroke-linejoin:round;stroke-miterlimit:10;" x1="162.775" y1="80.217" x2="162.775" y2="82.251"/>
				</g>
				<g>
					
						<line style="fill:none;stroke:#263238;stroke-linecap:round;stroke-linejoin:round;stroke-miterlimit:10;" x1="150.253" y1="106.913" x2="136.079" y2="106.913"/>
					
						<line style="fill:none;stroke:#263238;stroke-linecap:round;stroke-linejoin:round;stroke-miterlimit:10;" x1="155.274" y1="106.913" x2="152.732" y2="106.913"/>
				</g>
				<g>
					
						<line style="fill:none;stroke:#263238;stroke-linecap:round;stroke-linejoin:round;stroke-miterlimit:10;" x1="172.563" y1="106.913" x2="170.275" y2="106.913"/>
					
						<line style="fill:none;stroke:#263238;stroke-linecap:round;stroke-linejoin:round;stroke-miterlimit:10;" x1="178.539" y1="106.913" x2="174.47" y2="106.913"/>
					
						<line style="fill:none;stroke:#263238;stroke-linecap:round;stroke-linejoin:round;stroke-miterlimit:10;" x1="189.471" y1="106.913" x2="180.953" y2="106.913"/>
				</g>
				<g>
					
						<line style="fill:none;stroke:#263238;stroke-linecap:round;stroke-linejoin:round;stroke-miterlimit:10;" x1="145.82" y1="123.867" x2="143.898" y2="125.79"/>
					
						<line style="fill:none;stroke:#263238;stroke-linecap:round;stroke-linejoin:round;stroke-miterlimit:10;" x1="154.957" y1="114.731" x2="147.171" y2="122.517"/>
					
						<line style="fill:none;stroke:#263238;stroke-linecap:round;stroke-linejoin:round;stroke-miterlimit:10;" x1="157.471" y1="112.216" x2="156.196" y2="113.491"/>
				</g>
				<g>
					
						<line style="fill:none;stroke:#263238;stroke-linecap:round;stroke-linejoin:round;stroke-miterlimit:10;" x1="175.392" y1="94.296" x2="168.078" y2="101.609"/>
					
						<line style="fill:none;stroke:#263238;stroke-linecap:round;stroke-linejoin:round;stroke-miterlimit:10;" x1="181.652" y1="88.036" x2="177.203" y2="92.484"/>
				</g>
				<g>
					
						<line style="fill:none;stroke:#263238;stroke-linecap:round;stroke-linejoin:round;stroke-miterlimit:10;" x1="147.236" y1="91.374" x2="143.898" y2="88.036"/>
					
						<line style="fill:none;stroke:#263238;stroke-linecap:round;stroke-linejoin:round;stroke-miterlimit:10;" x1="157.471" y1="101.609" x2="148.664" y2="92.802"/>
				</g>
				<g>
					
						<line style="fill:none;stroke:#263238;stroke-linecap:round;stroke-linejoin:round;stroke-miterlimit:10;" x1="169.609" y1="113.746" x2="168.082" y2="112.219"/>
					
						<line style="fill:none;stroke:#263238;stroke-linecap:round;stroke-linejoin:round;stroke-miterlimit:10;" x1="176.196" y1="120.334" x2="171.005" y2="115.143"/>
					
						<line style="fill:none;stroke:#263238;stroke-linecap:round;stroke-linejoin:round;stroke-miterlimit:10;" x1="181.652" y1="125.79" x2="177.807" y2="121.945"/>
				</g>
			</g>
			<g>
				<g>
					
						<line style="fill:none;stroke:#263238;stroke-linecap:round;stroke-linejoin:round;stroke-miterlimit:10;" x1="184.811" y1="160.111" x2="188.699" y2="169.5"/>
					
						<line style="fill:none;stroke:#263238;stroke-linecap:round;stroke-linejoin:round;stroke-miterlimit:10;" x1="170.058" y1="124.496" x2="181.848" y2="152.959"/>
				</g>
				<g>
					
						<line style="fill:none;stroke:#263238;stroke-linecap:round;stroke-linejoin:round;stroke-miterlimit:10;" x1="153.331" y1="84.114" x2="155.491" y2="89.328"/>
					
						<line style="fill:none;stroke:#263238;stroke-linecap:round;stroke-linejoin:round;stroke-miterlimit:10;" x1="141.048" y1="54.46" x2="151.418" y2="79.494"/>
					
						<line style="fill:none;stroke:#263238;stroke-linecap:round;stroke-linejoin:round;stroke-miterlimit:10;" x1="136.851" y1="44.326" x2="138.826" y2="49.095"/>
				</g>
				<g>
					
						<line style="fill:none;stroke:#263238;stroke-linecap:round;stroke-linejoin:round;stroke-miterlimit:10;" x1="133.418" y1="119.073" x2="100.188" y2="132.837"/>
					
						<line style="fill:none;stroke:#263238;stroke-linecap:round;stroke-linejoin:round;stroke-miterlimit:10;" x1="145.191" y1="114.196" x2="139.229" y2="116.666"/>
				</g>
				<g>
					
						<line style="fill:none;stroke:#263238;stroke-linecap:round;stroke-linejoin:round;stroke-miterlimit:10;" x1="185.723" y1="97.407" x2="180.359" y2="99.629"/>
					
						<line style="fill:none;stroke:#263238;stroke-linecap:round;stroke-linejoin:round;stroke-miterlimit:10;" x1="199.732" y1="91.605" x2="190.193" y2="95.556"/>
					
						<line style="fill:none;stroke:#263238;stroke-linecap:round;stroke-linejoin:round;stroke-miterlimit:10;" x1="225.362" y1="80.988" x2="205.392" y2="89.26"/>
				</g>
				<g>
					
						<line style="fill:none;stroke:#263238;stroke-linecap:round;stroke-linejoin:round;stroke-miterlimit:10;" x1="139.491" y1="163.126" x2="136.851" y2="169.5"/>
					
						<line style="fill:none;stroke:#263238;stroke-linecap:round;stroke-linejoin:round;stroke-miterlimit:10;" x1="152.038" y1="132.834" x2="141.345" y2="158.65"/>
					
						<line style="fill:none;stroke:#263238;stroke-linecap:round;stroke-linejoin:round;stroke-miterlimit:10;" x1="155.491" y1="124.496" x2="153.74" y2="128.724"/>
				</g>
				<g>
					
						<line style="fill:none;stroke:#263238;stroke-linecap:round;stroke-linejoin:round;stroke-miterlimit:10;" x1="180.102" y1="65.081" x2="170.058" y2="89.329"/>
					
						<line style="fill:none;stroke:#263238;stroke-linecap:round;stroke-linejoin:round;stroke-miterlimit:10;" x1="188.699" y1="44.326" x2="182.59" y2="59.075"/>
				</g>
				<g>
					
						<line style="fill:none;stroke:#263238;stroke-linecap:round;stroke-linejoin:round;stroke-miterlimit:10;" x1="111.255" y1="85.572" x2="100.188" y2="80.988"/>
					
						<line style="fill:none;stroke:#263238;stroke-linecap:round;stroke-linejoin:round;stroke-miterlimit:10;" x1="145.191" y1="99.629" x2="115.991" y2="87.534"/>
				</g>
				<g>
					
						<line style="fill:none;stroke:#263238;stroke-linecap:round;stroke-linejoin:round;stroke-miterlimit:10;" x1="185.432" y1="116.298" x2="180.37" y2="114.201"/>
					
						<line style="fill:none;stroke:#263238;stroke-linecap:round;stroke-linejoin:round;stroke-miterlimit:10;" x1="207.272" y1="125.344" x2="190.062" y2="118.215"/>
					
						<line style="fill:none;stroke:#263238;stroke-linecap:round;stroke-linejoin:round;stroke-miterlimit:10;" x1="225.362" y1="132.837" x2="212.614" y2="127.557"/>
				</g>
			</g>
		</g>
		<g>
			<g>
				<g>
					<path style="fill:#263238;stroke:#263238;stroke-linecap:round;stroke-linejoin:round;stroke-miterlimit:10;" d="
						M131.638,187.986l-2.097-0.81l3.338-8.642c0.289-0.748-0.085-1.592-0.833-1.881l-6.203-2.396
						c-1.904-0.735-2.855-2.884-2.119-4.788l2.395-6.202c0.289-0.748-0.084-1.592-0.833-1.882l-6.203-2.396
						c-1.904-0.735-2.855-2.883-2.12-4.787l2.396-6.203c0.289-0.748-0.085-1.592-0.833-1.881l-6.202-2.396
						c-1.904-0.736-2.855-2.883-2.12-4.788l2.396-6.203c0.289-0.748-0.084-1.592-0.833-1.881l-8.641-3.337l0.81-2.097l8.641,3.338
						c1.904,0.735,2.855,2.883,2.12,4.788l-2.396,6.203c-0.289,0.748,0.085,1.592,0.833,1.881l6.202,2.396
						c1.904,0.735,2.855,2.883,2.12,4.788l-2.396,6.203c-0.289,0.748,0.085,1.592,0.833,1.881l6.203,2.396
						c1.904,0.735,2.855,2.884,2.12,4.788l-2.395,6.202c-0.289,0.748,0.084,1.593,0.833,1.882l6.203,2.396
						c1.904,0.736,2.855,2.883,2.12,4.787L131.638,187.986z"/>
				</g>
				<g style="opacity:0.5;">
					<path style="fill:#263238;stroke:#263238;stroke-linecap:round;stroke-linejoin:round;stroke-miterlimit:10;" d="
						M131.638,187.986l-2.097-0.81l3.338-8.642c0.289-0.748-0.085-1.592-0.833-1.881l-6.203-2.396
						c-1.904-0.735-2.855-2.884-2.119-4.788l2.395-6.202c0.289-0.748-0.084-1.592-0.833-1.882l-6.203-2.396
						c-1.904-0.735-2.855-2.883-2.12-4.787l2.396-6.203c0.289-0.748-0.085-1.592-0.833-1.881l-6.202-2.396
						c-1.904-0.736-2.855-2.883-2.12-4.788l2.396-6.203c0.289-0.748-0.084-1.592-0.833-1.881l-8.641-3.337l0.81-2.097l8.641,3.338
						c1.904,0.735,2.855,2.883,2.12,4.788l-2.396,6.203c-0.289,0.748,0.085,1.592,0.833,1.881l6.202,2.396
						c1.904,0.735,2.855,2.883,2.12,4.788l-2.396,6.203c-0.289,0.748,0.085,1.592,0.833,1.881l6.203,2.396
						c1.904,0.735,2.855,2.884,2.12,4.788l-2.395,6.202c-0.289,0.748,0.084,1.593,0.833,1.882l6.203,2.396
						c1.904,0.736,2.855,2.883,2.12,4.787L131.638,187.986z"/>
				</g>
			</g>
			<g>
				<g>
					<path style="fill:#92E3A9;stroke:#263238;stroke-linecap:round;stroke-linejoin:round;stroke-miterlimit:10;" d="
						M132.461,185.856l-2.097-0.81l3.338-8.642c0.289-0.748-0.085-1.591-0.833-1.881l-6.203-2.396
						c-1.904-0.736-2.855-2.884-2.119-4.788l2.395-6.202c0.289-0.748-0.084-1.593-0.833-1.882l-6.203-2.396
						c-1.904-0.735-2.855-2.883-2.12-4.787l2.396-6.203c0.289-0.748-0.085-1.592-0.833-1.881l-6.202-2.396
						c-1.904-0.736-2.855-2.883-2.12-4.788l2.396-6.203c0.289-0.749-0.084-1.592-0.833-1.881l-8.641-3.337l0.81-2.097l8.641,3.337
						c1.904,0.736,2.855,2.883,2.12,4.788l-2.396,6.203c-0.289,0.748,0.085,1.592,0.833,1.881l6.202,2.396
						c1.904,0.735,2.855,2.883,2.12,4.788l-2.396,6.203c-0.289,0.748,0.085,1.592,0.833,1.881l6.203,2.396
						c1.904,0.735,2.855,2.884,2.12,4.788l-2.395,6.202c-0.289,0.749,0.084,1.593,0.833,1.882l6.202,2.396
						c1.904,0.735,2.856,2.883,2.12,4.787L132.461,185.856z"/>
				</g>
				<g style="opacity:0.5;">
					<path style="fill:#92E3A9;stroke:#263238;stroke-linecap:round;stroke-linejoin:round;stroke-miterlimit:10;" d="
						M132.461,185.856l-2.097-0.81l3.338-8.642c0.289-0.748-0.085-1.591-0.833-1.881l-6.203-2.396
						c-1.904-0.736-2.855-2.884-2.119-4.788l2.395-6.202c0.289-0.748-0.084-1.593-0.833-1.882l-6.203-2.396
						c-1.904-0.735-2.855-2.883-2.12-4.787l2.396-6.203c0.289-0.748-0.085-1.592-0.833-1.881l-6.202-2.396
						c-1.904-0.736-2.855-2.883-2.12-4.788l2.396-6.203c0.289-0.749-0.084-1.592-0.833-1.881l-8.641-3.337l0.81-2.097l8.641,3.337
						c1.904,0.736,2.855,2.883,2.12,4.788l-2.396,6.203c-0.289,0.748,0.085,1.592,0.833,1.881l6.202,2.396
						c1.904,0.735,2.855,2.883,2.12,4.788l-2.396,6.203c-0.289,0.748,0.085,1.592,0.833,1.881l6.203,2.396
						c1.904,0.735,2.855,2.884,2.12,4.788l-2.395,6.202c-0.289,0.749,0.084,1.593,0.833,1.882l6.202,2.396
						c1.904,0.735,2.856,2.883,2.12,4.787L132.461,185.856z"/>
				</g>
			</g>
		</g>
		<g>
			<g>
				<defs>
					<path id="XMLID_4_" d="M387.893,104.843c0,0-24.083-25.787-13.03-33.611C385.916,63.409,387.893,104.843,387.893,104.843z"/>
				</defs>
				<use xlink:href="#XMLID_4_"  style="overflow:visible;fill:#92E3A9;"/>
				<clipPath id="XMLID_00000098942588935065312710000000474778414412898703_">
					<use xlink:href="#XMLID_4_"  style="overflow:visible;"/>
				</clipPath>
				<path style="opacity:0.5;clip-path:url(#XMLID_00000098942588935065312710000000474778414412898703_);fill:#FFFFFF;" d="
					M387.893,104.843c0,0-24.083-25.787-13.03-33.611C385.916,63.409,387.893,104.843,387.893,104.843z"/>
				<use xlink:href="#XMLID_4_"  style="overflow:visible;fill:none;stroke:#000000;stroke-miterlimit:10;"/>
			</g>
		</g>
		<g>
			<g>
				<defs>
					<path id="XMLID_3_" d="M225.697,182.493c0,0-24.835,1.75-24.215-7.785C202.102,165.174,225.697,182.493,225.697,182.493z"/>
				</defs>
				<use xlink:href="#XMLID_3_"  style="overflow:visible;fill:#92E3A9;"/>
				<clipPath id="XMLID_00000169525861209728595810000000161584477118394785_">
					<use xlink:href="#XMLID_3_"  style="overflow:visible;"/>
				</clipPath>
				<path style="opacity:0.5;clip-path:url(#XMLID_00000169525861209728595810000000161584477118394785_);fill:#FFFFFF;" d="
					M225.697,182.493c0,0-24.835,1.75-24.215-7.785C202.102,165.174,225.697,182.493,225.697,182.493z"/>
				<use xlink:href="#XMLID_3_"  style="overflow:visible;fill:none;stroke:#000000;stroke-miterlimit:10;"/>
			</g>
		</g>
		<g>
			<path style="fill:#92E3A9;stroke:#000000;stroke-miterlimit:10;" d="M396.173,130.052c0,0-5.703-46.064,9.261-45.402
				C420.398,85.311,396.173,130.052,396.173,130.052z"/>
		</g>
		<g>
			<g>
				<defs>
					<path id="XMLID_2_" d="M402.71,128.122c0,0,6.344-14.289,11.625-10.896C419.616,120.618,402.71,128.122,402.71,128.122z"/>
				</defs>
				<use xlink:href="#XMLID_2_"  style="overflow:visible;fill:#92E3A9;"/>
				<clipPath id="XMLID_00000147201622691291720200000014077056110916748988_">
					<use xlink:href="#XMLID_2_"  style="overflow:visible;"/>
				</clipPath>
				<path style="opacity:0.4;clip-path:url(#XMLID_00000147201622691291720200000014077056110916748988_);" d="M402.71,128.122
					c0,0,6.344-14.289,11.625-10.896C419.616,120.618,402.71,128.122,402.71,128.122z"/>
				<use xlink:href="#XMLID_2_"  style="overflow:visible;fill:none;stroke:#000000;stroke-miterlimit:10;"/>
			</g>
		</g>
		<g>
			<g>
				<defs>
					<path id="XMLID_1_" d="M391.505,129.739c0,0-13.422-8.016-9.419-12.851C386.089,112.053,391.505,129.739,391.505,129.739z"/>
				</defs>
				<use xlink:href="#XMLID_1_"  style="overflow:visible;fill:#92E3A9;"/>
				<clipPath id="XMLID_00000134961680584516240760000011982325297712304819_">
					<use xlink:href="#XMLID_1_"  style="overflow:visible;"/>
				</clipPath>
				<path style="opacity:0.4;clip-path:url(#XMLID_00000134961680584516240760000011982325297712304819_);" d="M391.505,129.739
					c0,0-13.422-8.016-9.419-12.851C386.089,112.053,391.505,129.739,391.505,129.739z"/>
				<use xlink:href="#XMLID_1_"  style="overflow:visible;fill:none;stroke:#000000;stroke-miterlimit:10;"/>
			</g>
		</g>
		<path style="stroke:#000000;stroke-miterlimit:10;" d="M393.164,143.438c-0.176-0.206-2.407-4.864,3.756-8.872
			c6.163-4.008,7.826-1.33,11.449-3.793c0,0-0.714,5.582-5.622,10.769C397.839,146.73,393.856,144.248,393.164,143.438z"/>
		<path style="fill:#92E3A9;stroke:#000000;stroke-miterlimit:10;" d="M379.722,161.184c-7.319,6.244-29.868,22.803-31.496,20.894
			c-1.629-1.909,18.279-21.565,25.598-27.809c7.319-6.244,14.573-9.757,16.202-7.848C391.655,148.33,387.042,154.94,379.722,161.184
			z"/>
		<path style="fill:#858585;stroke:#263238;stroke-linecap:round;stroke-linejoin:round;stroke-miterlimit:10;" d="M388.566,150.252
			l-2.553-2.993c-0.29-0.34-0.25-0.852,0.091-1.142l6.539-5.578l3.604,4.225l-6.539,5.578
			C389.367,150.633,388.856,150.592,388.566,150.252z"/>
		<path style="fill:#92E3A9;stroke:#000000;stroke-miterlimit:10;" d="M408.369,130.774c-3.623,2.463-5.285-0.215-11.449,3.793
			c-0.671,0.437-1.227,0.881-1.712,1.326c-0.262,0.465-0.309,0.898,0.035,1.23c1.404,1.354,5.321-2.734,6.32-1.782
			c0.999,0.952-1.689,2.25-0.445,3.49c1.241,1.236-0.808,2.893,0.343,3.903c0.421-0.347,0.848-0.729,1.285-1.191
			C407.655,136.355,408.369,130.774,408.369,130.774z"/>
		<g>
			<path style="fill:#92E3A9;stroke:#263238;stroke-linecap:round;stroke-linejoin:round;stroke-miterlimit:10;" d="
				M202.709,134.716c-0.202-1.038-1.203-1.701-2.238-1.481c-1.034,0.22-1.709,1.24-1.507,2.278c0.04,0.208,0.19,0.979,0.23,1.187
				c0.202,1.038,1.204,1.701,2.238,1.481c1.034-0.22,1.709-1.24,1.507-2.278C202.899,135.695,202.749,134.924,202.709,134.716z"/>
			<path style="fill:#92E3A9;stroke:#263238;stroke-linecap:round;stroke-linejoin:round;stroke-miterlimit:10;" d="
				M195.929,142.805l1.028,5.291c0.102,0.524,0.574,0.91,1.103,0.849c0.607-0.07,1.017-0.645,0.903-1.231l-0.872-4.489
				c-0.043-0.223,0.102-0.442,0.324-0.489h0c0.222-0.047,0.437,0.095,0.481,0.318l3.515,18.093c0.134,0.692,0.802,1.134,1.492,0.988
				l0,0c0.689-0.147,1.139-0.826,1.005-1.518l-1.865-9.601c-0.09-0.462,0.174-0.948,0.629-1.07c0.485-0.13,0.966,0.175,1.06,0.661
				l1.874,9.649c0.134,0.692,0.802,1.134,1.492,0.988l0,0c0.689-0.146,1.139-0.826,1.005-1.518l-3.515-18.093
				c-0.043-0.223,0.102-0.442,0.324-0.489l0,0c0.222-0.047,0.437,0.095,0.481,0.318l0.864,4.446c0.102,0.523,0.574,0.91,1.103,0.849
				c0.607-0.07,1.017-0.645,0.903-1.231l-1.036-5.334c-0.273-1.404-1.628-2.301-3.026-2.004l-7.231,1.537
				C196.569,140.022,195.656,141.401,195.929,142.805z"/>
		</g>
		<g>
			<g>
				<path style="fill:#92E3A9;stroke:#263238;stroke-linecap:round;stroke-linejoin:round;stroke-miterlimit:10;" d="
					M398.566,169.047c0,0,3.571-3.934,3.831-4.22c1.297-1.428,3.397-1.906,4.689-1.066c1.293,0.839,1.664,2.922,0.83,4.651
					c-0.167,0.346-2.462,5.109-2.462,5.109C402.699,171.731,401.321,170.836,398.566,169.047z"/>
			</g>
			<path style="fill:#92E3A9;stroke:#263238;stroke-linecap:round;stroke-linejoin:round;stroke-miterlimit:10;" d="
				M406.798,176.089l-11.168-7.252c-2.16-1.403-5.08-0.809-6.52,1.327l-5.43,8.049c-0.537,0.796-0.428,1.89,0.323,2.486
				c0.861,0.684,2.116,0.474,2.718-0.418l4.607-6.829c0.229-0.339,0.693-0.434,1.036-0.211l0,0c0.343,0.223,0.436,0.679,0.207,1.018
				l-5.796,8.592l-7.728,6.749l2.207,1.433l-7.252,10.749c-0.71,1.053-0.423,2.467,0.642,3.158c1.065,0.692,2.504,0.399,3.214-0.654
				l7.252-10.749l2.623,1.703l-7.252,10.75c-0.71,1.052-0.423,2.467,0.642,3.158c1.065,0.692,2.504,0.399,3.214-0.654l7.252-10.749
				l2.207,1.433l3.313-9.615l5.796-8.592c0.229-0.339,0.693-0.434,1.036-0.211c0.343,0.223,0.436,0.678,0.207,1.018l-4.563,6.763
				c-0.537,0.796-0.428,1.89,0.323,2.487c0.862,0.684,2.116,0.474,2.718-0.418l5.474-8.114
				C409.541,180.361,408.958,177.492,406.798,176.089z"/>
		</g>
		<path style="fill:#999999;stroke:#263238;stroke-linecap:round;stroke-linejoin:round;stroke-miterlimit:10;" d="M331.658,130.159
			c-5.128,0-9.688-2.401-12.642-6.132c1.03,6.058,6.29,10.675,12.642,10.675c6.351,0,11.612-4.617,12.642-10.675
			C341.345,127.757,336.786,130.159,331.658,130.159z"/>
		<path style="fill:#999999;stroke:#263238;stroke-linecap:round;stroke-linejoin:round;stroke-miterlimit:10;" d="M314.605,112.216
			c0-3.461,1.62-6.538,4.138-8.531c-4.088,0.695-7.204,4.245-7.204,8.531c0,4.286,3.116,7.836,7.204,8.531
			C316.225,118.754,314.605,115.677,314.605,112.216z"/>
		<path style="fill:#999999;stroke:#263238;stroke-linecap:round;stroke-linejoin:round;stroke-miterlimit:10;" d="M305.286,144.755
			c-2.447-2.447-3.477-5.769-3.107-8.958c-2.399,3.382-2.092,8.096,0.938,11.126c3.031,3.031,7.744,3.338,11.127,0.938
			C311.055,148.232,307.734,147.202,305.286,144.755z"/>
		<path style="fill:#999999;stroke:#263238;stroke-linecap:round;stroke-linejoin:round;stroke-miterlimit:10;" d="M288.834,160.596
			c-2.458,0-4.644-1.151-6.06-2.939c0.494,2.904,3.016,5.117,6.06,5.117c3.045,0,5.566-2.213,6.06-5.117
			C293.478,159.445,291.293,160.596,288.834,160.596z"/>
		<path style="fill:#999999;stroke:#263238;stroke-linecap:round;stroke-linejoin:round;stroke-miterlimit:10;" d="M243.479,165.614
			c-1.976,0-3.732-0.925-4.871-2.362c0.397,2.334,2.424,4.113,4.871,4.113c2.447,0,4.474-1.779,4.871-4.113
			C247.211,164.689,245.455,165.614,243.479,165.614z"/>
		<path style="fill:#999999;stroke:#263238;stroke-linecap:round;stroke-linejoin:round;stroke-miterlimit:10;" d="M284.572,144.745
			c0-1.976,0.925-3.732,2.362-4.871c-2.334,0.397-4.113,2.424-4.113,4.871c0,2.447,1.779,4.474,4.113,4.871
			C285.497,148.477,284.572,146.721,284.572,144.745z"/>
		<g>
			<polygon style="fill:#263238;stroke:#263238;stroke-linecap:round;stroke-linejoin:round;stroke-miterlimit:10;" points="
				364.159,100.832 372.552,96.419 370.949,105.765 377.739,112.384 368.356,113.747 364.159,122.251 359.963,113.747 
				350.579,112.384 357.369,105.765 355.766,96.419 			"/>
			<polygon style="fill:#92E3A9;stroke:#263238;stroke-linecap:round;stroke-linejoin:round;stroke-miterlimit:10;" points="
				363.097,98.708 371.49,94.296 369.887,103.642 376.678,110.26 367.294,111.624 363.097,120.127 358.901,111.624 349.517,110.26 
				356.307,103.642 354.704,94.296 			"/>
		</g>
		<g>
			<polygon style="fill:#263238;stroke:#263238;stroke-linecap:round;stroke-linejoin:round;stroke-miterlimit:10;" points="
				332.161,88.879 338.765,90.931 333.119,94.924 333.207,101.839 327.665,97.703 321.117,99.924 323.337,93.375 319.202,87.833 
				326.116,87.921 330.109,82.275 			"/>
			<polygon style="fill:#92E3A9;stroke:#263238;stroke-linecap:round;stroke-linejoin:round;stroke-miterlimit:10;" points="
				332.709,87.236 339.312,89.289 333.667,93.282 333.755,100.196 328.213,96.06 321.664,98.281 323.885,91.732 319.749,86.19 
				326.664,86.279 330.656,80.633 			"/>
		</g>
		<g>
			<polygon style="fill:#263238;stroke:#263238;stroke-linecap:round;stroke-linejoin:round;stroke-miterlimit:10;" points="
				303.582,150.665 307.096,148.817 306.425,152.73 309.267,155.501 305.339,156.072 303.582,159.631 301.825,156.072 
				297.897,155.501 300.739,152.73 300.068,148.817 			"/>
			<polygon style="fill:#92E3A9;stroke:#263238;stroke-linecap:round;stroke-linejoin:round;stroke-miterlimit:10;" points="
				303.137,149.775 306.651,147.928 305.98,151.841 308.823,154.612 304.894,155.183 303.137,158.742 301.381,155.183 
				297.452,154.612 300.295,151.841 299.624,147.928 			"/>
		</g>
		<g>
			<polygon style="fill:#263238;stroke:#263238;stroke-linecap:round;stroke-linejoin:round;stroke-miterlimit:10;" points="
				248.993,147.671 251.963,146.109 251.396,149.417 253.799,151.759 250.478,152.242 248.993,155.251 247.508,152.242 
				244.187,151.759 246.59,149.417 246.022,146.109 			"/>
			<polygon style="fill:#92E3A9;stroke:#263238;stroke-linecap:round;stroke-linejoin:round;stroke-miterlimit:10;" points="
				248.617,146.919 251.587,145.358 251.02,148.665 253.423,151.008 250.102,151.49 248.617,154.499 247.132,151.49 
				243.811,151.008 246.214,148.665 245.647,145.358 			"/>
		</g>
		<g>
			<polygon style="fill:#92E3A9;stroke:#263238;stroke-linecap:round;stroke-linejoin:round;stroke-miterlimit:10;" points="
				300.812,182.073 299.979,185.388 300.257,186.755 337.547,196.122 336.276,194.506 337.108,191.191 338.992,190.367 301.703,181 
							"/>
			<polygon style="fill:#FFFFFF;stroke:#263238;stroke-linecap:round;stroke-linejoin:round;stroke-miterlimit:10;" points="
				344.944,194.921 338.992,190.367 337.087,190.416 335.579,194.454 336.646,195.896 337.547,196.122 			"/>
			<path style="fill:#263238;stroke:#263238;stroke-linecap:round;stroke-linejoin:round;stroke-miterlimit:10;" d="
				M342.882,193.344c-0.176,0.281-0.323,0.597-0.413,0.956c-0.09,0.359-0.11,0.707-0.088,1.038l2.562-0.416L342.882,193.344z"/>
		</g>
		<g>
			<path style="fill:none;stroke:#263238;stroke-linecap:round;stroke-linejoin:round;stroke-miterlimit:10;" d="M371.255,179.876
				c0.727-2.305,1.502-4.078,2.356-4.71"/>
			<path style="fill:none;stroke:#263238;stroke-linecap:round;stroke-linejoin:round;stroke-miterlimit:10;" d="M352.128,187.389
				c1.06-0.814,2.029-1.26,2.638-0.873c2.032,1.293-5.743,16.375-1.715,17.122c4.028,0.747,6.838-21.999,10.771-22.707
				s-1.405,17.554,1.405,17.554c1.846,0,3.412-8.98,5.238-15.854"/>
			<path style="fill:none;stroke:#263238;stroke-linecap:round;stroke-linejoin:round;stroke-miterlimit:10;" d="M350.28,189.054
				c0.279-0.281,0.561-0.555,0.844-0.814"/>
			<path style="fill:none;stroke:#263238;stroke-linecap:round;stroke-linejoin:round;stroke-miterlimit:10;" d="M346.684,193.21
				c0,0,0.841-1.111,2.002-2.437"/>
		</g>
		<g>
			
				<rect x="322.115" y="145.797" transform="matrix(0.7777 -0.6287 0.6287 0.7777 -19.304 253.364)" style="fill:#92E3A9;stroke:#263238;stroke-linecap:round;stroke-linejoin:round;stroke-miterlimit:10;" width="52.913" height="16.357"/>
			
				<rect x="324.686" y="153.066" transform="matrix(0.7777 -0.6287 0.6287 0.7777 -20.7317 255.6871)" style="fill:#999999;stroke:#263238;stroke-linecap:round;stroke-linejoin:round;stroke-miterlimit:10;" width="52.913" height="8.179"/>
			<g>
				
					<line style="fill:none;stroke:#263238;stroke-linecap:round;stroke-linejoin:round;stroke-miterlimit:10;" x1="325.238" y1="162.32" x2="328.287" y2="166.092"/>
				
					<line style="fill:none;stroke:#263238;stroke-linecap:round;stroke-linejoin:round;stroke-miterlimit:10;" x1="327.621" y1="160.394" x2="329.257" y2="162.417"/>
				
					<line style="fill:none;stroke:#263238;stroke-linecap:round;stroke-linejoin:round;stroke-miterlimit:10;" x1="330.005" y1="158.467" x2="331.64" y2="160.491"/>
				
					<line style="fill:none;stroke:#263238;stroke-linecap:round;stroke-linejoin:round;stroke-miterlimit:10;" x1="332.388" y1="156.541" x2="334.023" y2="158.564"/>
				
					<line style="fill:none;stroke:#263238;stroke-linecap:round;stroke-linejoin:round;stroke-miterlimit:10;" x1="334.771" y1="154.615" x2="336.407" y2="156.638"/>
				
					<line style="fill:none;stroke:#263238;stroke-linecap:round;stroke-linejoin:round;stroke-miterlimit:10;" x1="337.154" y1="152.688" x2="340.203" y2="156.459"/>
				
					<line style="fill:none;stroke:#263238;stroke-linecap:round;stroke-linejoin:round;stroke-miterlimit:10;" x1="339.538" y1="150.762" x2="341.173" y2="152.785"/>
				
					<line style="fill:none;stroke:#263238;stroke-linecap:round;stroke-linejoin:round;stroke-miterlimit:10;" x1="341.921" y1="148.835" x2="343.556" y2="150.858"/>
				
					<line style="fill:none;stroke:#263238;stroke-linecap:round;stroke-linejoin:round;stroke-miterlimit:10;" x1="344.304" y1="146.908" x2="345.939" y2="148.932"/>
				
					<line style="fill:none;stroke:#263238;stroke-linecap:round;stroke-linejoin:round;stroke-miterlimit:10;" x1="346.687" y1="144.982" x2="348.323" y2="147.005"/>
				
					<line style="fill:none;stroke:#263238;stroke-linecap:round;stroke-linejoin:round;stroke-miterlimit:10;" x1="349.07" y1="143.055" x2="352.119" y2="146.827"/>
				
					<line style="fill:none;stroke:#263238;stroke-linecap:round;stroke-linejoin:round;stroke-miterlimit:10;" x1="351.454" y1="141.129" x2="353.089" y2="143.152"/>
				
					<line style="fill:none;stroke:#263238;stroke-linecap:round;stroke-linejoin:round;stroke-miterlimit:10;" x1="353.837" y1="139.202" x2="355.472" y2="141.226"/>
				
					<line style="fill:none;stroke:#263238;stroke-linecap:round;stroke-linejoin:round;stroke-miterlimit:10;" x1="356.22" y1="137.276" x2="357.855" y2="139.299"/>
				
					<line style="fill:none;stroke:#263238;stroke-linecap:round;stroke-linejoin:round;stroke-miterlimit:10;" x1="358.603" y1="135.349" x2="360.239" y2="137.372"/>
				
					<line style="fill:none;stroke:#263238;stroke-linecap:round;stroke-linejoin:round;stroke-miterlimit:10;" x1="360.986" y1="133.423" x2="364.035" y2="137.194"/>
			</g>
		</g>
		<g>
			<polygon style="fill:#263238;stroke:#263238;stroke-linecap:round;stroke-linejoin:round;stroke-miterlimit:10;" points="
				157.929,168.564 162.977,181.827 152.88,181.827 			"/>
			<polygon style="fill:#92E3A9;stroke:#263238;stroke-linecap:round;stroke-linejoin:round;stroke-miterlimit:10;" points="
				159.603,170.238 164.651,183.501 154.554,183.501 			"/>
		</g>
		<g>
			<polygon style="fill:#263238;stroke:#263238;stroke-linecap:round;stroke-linejoin:round;stroke-miterlimit:10;" points="
				321.404,177.834 309.429,170.219 317.523,164.184 			"/>
			<polygon style="fill:#92E3A9;stroke:#263238;stroke-linecap:round;stroke-linejoin:round;stroke-miterlimit:10;" points="
				319.061,177.492 307.086,169.877 315.181,163.842 			"/>
		</g>
	</g>
</g>
</svg>
